<svg xmlns="http://www.w3.org/2000/svg" xmlns:xlink="http://www.w3.org/1999/xlink" width="165" height="179"><g transform="scale(.99398 .99444)"><svg xmlns="http://www.w3.org/2000/svg" width="166" height="180" fill="none"><path fill="#33F28B" stroke="#000" stroke-miterlimit="10" stroke-width=".571" d="M38.248 55.532c-4.238-1.433-8.922-.588-13.143.891-6.06 2.125-11.703 5.575-16.078 10.276C4.65 71.399 1.59 77.39.722 83.754c-.572 4.17-.2 8.465 1.08 12.475 1.387 4.358 3.969 8.493 7.881 10.864-4.164 6.123-5.86 13.702-4.45 20.968 1.412 7.265 5.821 13.902 11.973 18.021 2.884 1.93 6.117 3.318 9.459 4.272 4.598 1.314 9.681 1.782 14.056-.148-2.644 3.855-3.82 8.636-2.975 13.234.56 3.044 1.919 5.917 3.786 8.379 1.034 1.365 2.234 2.616 3.639 3.598 2.433 1.697 5.358 2.514 8.253 3.165 2.936.657 5.93 1.182 8.934 1.005 7.893-.463 14.879-5.797 19.197-12.429 3.062-4.706 8.55-6.757 13.463-9.47.988 1.708 1.776 2.725 3.313 3.97 1.473 1.194 3.153 2.125 4.895 2.884 8.659 3.77 19.271 3.473 27.291-1.508 16.524-10.252 15.896-22.83 15.724-22.927 5.347-1.645 10.43-5.512 13.555-10.15 3.124-4.638 4.843-10.127 5.489-15.685.491-4.249.354-8.659-1.154-12.657-1.514-4.004-4.535-7.562-8.551-9.042 2.057-7.768.543-16.701-4.666-22.818-1.097-1.286-2.336-2.474-3.793-3.33-1.508-.886-3.204-1.4-4.923-1.714a23.757 23.757 0 00-12.966 1.274c2.233-8.23-.577-18.278-6.786-24.127-4.735-4.46-11.069-6.774-17.324-8.585-2.753-.8-5.575-1.525-8.442-1.496-5.529-5.112-13.263-8.79-20.78-9.23-7.516-.44-15.079 1.433-21.807 4.82-2.154 1.085-4.244 2.33-6.01 3.97-1.833 1.702-3.272 3.787-4.671 5.866-1.822 2.713-3.622 5.483-4.758 8.545-1.137 3.061-1.354 6.654-.4 9.784h-.006z"/><path fill="#FFB548" stroke="#000" stroke-miterlimit="10" stroke-width=".571" d="M71.537 51.82C60.9 58.76 53.167 63.802 42.532 70.737c-7.86 5.13-15.507 9.322-14.93 21.197.656 13.411 8.247 18.215 15.976 23.407 8.287 5.563 15.17 8.95 23.458 14.513 1.56-9.853 8.042-18.803 16.918-23.355L65.111 95.635c-.782-.451-1.622-.96-1.97-1.794-.772-1.827 1.193-3.575 2.89-4.598 2.107-1.273 4.215-2.547 6.323-3.815-.577-12.949-.829-33.603-.829-33.603l.012-.006zM102.506 73.759c10.635 6.94 18.94 11.983 29.576 18.917 7.859 5.13 15.507 9.322 14.93 21.197-.656 13.411-8.247 18.215-15.976 23.407-8.287 5.563-15.17 8.95-23.458 14.513-1.559-9.852-8.042-18.803-16.918-23.355l18.843-10.864c.782-.451 1.622-.96 1.971-1.794.771-1.827-1.194-3.575-2.891-4.598-2.107-1.273-4.215-2.547-6.323-3.815.577-12.949.257-33.603.257-33.603l-.011-.005z"/><path fill="#fff" stroke="#000" stroke-miterlimit="10" stroke-width=".571" d="M75.826 8.575c-1.554-1.89-4.798-2.587-6.397-.736-1.531 1.77-.703 4.443-.554 6.78.24 3.815-1.6 7.436-2.205 11.212-.668 4.186.188 8.448 1.04 12.6.76 3.684 1.667 7.637 4.489 10.121 1.257 1.108 2.799 1.822 4.318 2.53 2.885 1.337 5.838 2.691 8.996 3.028 4.17.446 8.305-.914 12.223-2.393 1.451-.549 2.913-1.12 4.187-2.01 1.291-.903 2.342-2.097 3.382-3.28l10.961-12.485c1.559-1.777 3.152-3.605 3.992-5.81.617-1.622.8-3.37.948-5.1.469-5.45.657-10.921.571-16.387-.011-.88-.04-1.794-.405-2.593-.617-1.36-2.245-2.182-3.707-1.862-1.462.32-2.605 1.736-2.599 3.232-.051-2.261-2.125-4.295-4.387-4.255-2.261.04-4.278 2.188-4.124 4.444-.177-1.525-.462-3.233-1.725-4.107-1.405-.97-3.375-.405-4.775.566-4.398 3.05-5.5 8.967-8.305 13.52a19.531 19.531 0 01-9.818 8.025c-.788.29-1.68.52-2.44.165-1.004-.474-1.313-1.736-1.433-2.838-.445-4.09.629-8.888-2.233-12.367z"/><path stroke="#000" stroke-miterlimit="10" stroke-width=".571" d="M106.464 5c-.982 3.056-1.971 6.129-3.404 8.996-1.44 2.873-3.353 5.557-5.918 7.488M115.089 5c-.291 8.916-4.37 17.558-10.664 22.602"/><path fill="#F8645B" stroke="#000" stroke-miterlimit="10" stroke-width=".571" d="M84.04 39.819c-1.6-.457-4.935-1.45-6.255-2.462-1.37-1.05-2.284-2.593-2.958-4.187-2-4.746-1.97-10.566 1.034-14.753 3.004-4.187 9.281-6.015 13.634-3.262.714.452 1.393 1.017 2.227 1.154.583.092 1.183-.04 1.754-.194 2.182-.594 4.386-1.52 6.62-1.177 3.193.486 5.5 3.524 6.174 6.683.674 3.159.057 6.426-.559 9.596-8.99 5.837-11.607.84-15.948 6.306-2.05 2.582-2.285 3.21-5.729 2.302l.006-.006z"/><path stroke="#000" stroke-miterlimit="10" stroke-width=".571" d="M89.346 18.708c-.16-2.027-.131-6.603.177-8.613.309-2.01 1.126-4.016 2.64-5.375"/><path fill="#33F28B" stroke="#000" stroke-miterlimit="10" stroke-width=".571" d="M79.973 4.295c.041 1.862 1.255 3.427 2.506 4.672 1.028 1.022 2.19 1.982 3.554 2.24 3.193.599 4.893-1.92 1.958-4.062-2.36-1.725-5.192-2.719-8.018-2.85z"/><path fill="#fff" stroke="#000" stroke-miterlimit="10" stroke-width=".571" d="M71.285 47.13c2.508 1.845 11.835 3.998 15.074 4.198 8.025.492 16.45-2.93 16.45-2.878v66.582c-9.75 1.297-30.324.828-30.382.828l-1.142-68.724v-.006z"/><path fill="#33F28B" d="M40.705 149.766c-3.867-.943-6.569-4.547-7.866-8.305-2.096-6.06-1.262-13.023 2.017-18.535 3.278-5.512 8.899-9.533 15.125-11.075 5.294-1.314 11.372-.72 15.467 2.884-.474-1.993.166-4.084 1.011-5.951 1.32-2.914 3.204-5.644 5.85-7.443 2.278-1.548 5.014-2.33 7.756-2.605 6.008-.6 12.274 1.263 16.821 5.232 4.552 3.97 7.26 10.042 6.934 16.068"/><path stroke="#000" stroke-miterlimit="10" stroke-width=".571" d="M40.705 149.766c-3.867-.943-6.569-4.547-7.866-8.305-2.096-6.06-1.262-13.023 2.017-18.535 3.278-5.512 8.899-9.533 15.125-11.075 5.294-1.314 11.372-.72 15.467 2.884-.474-1.993.166-4.084 1.011-5.951 1.32-2.914 3.204-5.644 5.85-7.443 2.278-1.548 5.014-2.33 7.756-2.605 6.008-.6 12.274 1.263 16.821 5.232 4.552 3.97 7.26 10.042 6.934 16.068"/><path fill="#fff" stroke="#000" stroke-miterlimit="10" stroke-width=".571" d="M101.969 134.492c-2.084-2.827-5.26-4.94-8.756-5.306-3.433-.354-6.785.943-10.155 1.651a30.25 30.25 0 01-10.39.365c-2.456-.337-5.615-.662-6.78 1.525-1.154 2.159.942 4.73 3.21 5.649 2.267.926 4.895 1.068 6.837 2.554.651.496 1.222 1.182 1.308 1.993.154 1.405-1.114 2.513-2.25 3.347l-7.426 5.455c-1.908 1.399-4.09 2.873-6.426 2.525-2.016-.303-3.918-1.942-5.854-1.308-2.194.714-2.525 3.752-1.84 5.957 1.988 6.38 7.631 11.458 14 13.486 1.257.399 3.496-.829 4.712-.326 3.827 1.565 4.798-.04 6.592-.194l2.502-.217c1.01-.086 2.027-.177 2.981-.509 1.582-.554 2.85-1.725 4.073-2.867l10.161-9.482c1.011-.942 2.045-1.919 2.639-3.164.497-1.039.651-2.199.879-3.33.606-3.01 2.656-5.712 3.165-8.625.508-2.913-1.48-6.865-3.182-9.184v.005z"/><path fill="#fff" d="M75.53 158.47a37.293 37.293 0 00-3.142 2.188c-4.319-.742-7.866-3.781-12.24-4.072-1.389-.092-2.96.194-3.776 1.325-.8 1.114-.577 2.719.171 3.872.748 1.154 1.908 1.959 3.044 2.731l2.616 1.782c3.188 2.17 6.192 3.946 9.653 5.649"/><path stroke="#000" stroke-miterlimit="10" stroke-width=".571" d="M75.53 158.47a37.293 37.293 0 00-3.142 2.188c-4.319-.742-7.866-3.781-12.24-4.072-1.389-.092-2.96.194-3.776 1.325-.8 1.114-.577 2.719.171 3.872.748 1.154 1.908 1.959 3.044 2.731l2.616 1.782c3.188 2.17 6.192 3.946 9.653 5.649"/><path fill="#fff" d="M84.542 159.087l-3.815 3.536c-.366.337-.748.691-1.228.828-.434.126-.897.057-1.337-.051-1.639-.406-3.078-1.377-4.598-2.119-1.52-.737-3.301-1.251-4.883-.674-1.582.577-2.662 2.644-1.72 4.055.332.491.84.828 1.343 1.142a54.804 54.804 0 0012.76 5.895"/><path stroke="#000" stroke-miterlimit="10" stroke-width=".571" d="M84.542 159.087l-3.815 3.536c-.366.337-.748.691-1.228.828-.434.126-.897.057-1.337-.051-1.639-.406-3.078-1.377-4.598-2.119-1.52-.737-3.301-1.251-4.883-.674-1.582.577-2.662 2.644-1.72 4.055.332.491.84.828 1.343 1.142a54.804 54.804 0 0012.76 5.895"/><path fill="#000" stroke="#000" stroke-miterlimit="10" stroke-width=".571" d="M92.082 153.164c-1.393-4.112-8.653-6.803-12.817-6.031-2.776.514-5.186 2.176-7.5 3.798-.348.246-.708.497-1.016.794 6.728 2.616 14.593 3.753 21.333 1.445v-.006z"/><path fill="#33F28B" stroke="#000" stroke-miterlimit="10" stroke-width=".571" d="M92.185 155.609a4.269 4.269 0 00-.109-2.445c-6.74 2.308-14.605 1.171-21.333-1.445a3.436 3.436 0 00-.446.514c3.627 4.096 8.78 5.638 14.006 6.278 2.758.068 5.694-1.023 7.882-2.902z"/><path fill="#000" stroke="#000" stroke-miterlimit="10" stroke-width=".571" d="M90.683 158.299c.81-.925 1.29-1.828 1.502-2.69-2.188 1.879-5.124 2.97-7.882 2.902-5.227-.64-10.379-2.182-14.006-6.278-.028.04-.063.08-.091.12-.891 1.405-.309 3.29.634 4.667 3.022 4.426 9.225 5.906 14.388 4.461 2.056-.577 4.044-1.582 5.455-3.182z"/><path stroke="#000" stroke-miterlimit="10" stroke-width=".571" d="M46.016 85.165c2.519-.828 5.29.126 7.574 1.462a23.223 23.223 0 016.888 6.18M56.092 84.822a13.57 13.57 0 016.266 7.135M111.891 115.055c1.45-2.593 4.021-4.438 6.802-5.472 2.782-1.034 5.792-1.336 8.762-1.416M115.324 109.4a4.952 4.952 0 012.09-2.21c.811-.446 1.725-.651 2.628-.851l4.786-1.063"/></svg></g></svg>