<svg xmlns="http://www.w3.org/2000/svg" xmlns:xlink="http://www.w3.org/1999/xlink" width="147" height="150"><g transform="scale(.94231 .9434)"><svg xmlns="http://www.w3.org/2000/svg" width="156" height="159" fill="none"><path fill="#5FDDE0" stroke="#000" stroke-miterlimit="10" stroke-width=".573" d="M36.188 16.099C21.138 25.663 10.95 42.17 17.141 56.827c2.998 7.097 9.442 13.032 11.998 20.239 2.128 5.996 1.32 12.638-2.2 18.183-4.124 6.492-11.684 11.38-14.88 18.201-3.535 7.535-.962 16.319 4.839 22.869 5.8 6.55 14.428 11.123 23.448 14.54 22.302 8.442 49.166 10.351 71.502 1.971 22.336-8.384 38.55-28.13 35.635-47.918-2.495-16.914-17.765-32.662-13.508-49.34 1.978-7.745 8.121-14.89 7.44-22.778-.828-9.573-11.591-16.73-22.699-20.115C90.1 3.963 62.169-.415 36.188 16.096v.006-.003z"/><path fill="#fff" stroke="#000" stroke-miterlimit="10" stroke-width=".419" d="M96.25 156.475c.474-.078.944-.169 1.413-.254-.46.061-.93.112-1.412.149v.105zM99.813 155.823v-.027c-.713.152-1.433.294-2.15.426.754-.102 1.477-.23 2.15-.399zM62.007 156.218v.115c.544.051 1.089.101 1.633.149-.544-.085-1.089-.169-1.633-.264zM81.066 138.876v-.008.008z"/><path fill="#fff" d="M58.645 115.167a77.903 77.903 0 008.878-4.854l-8.878 4.854zM100.452 149.188a88.47 88.47 0 01-10.19-5.668l10.19 5.668z"/><path fill="#fff" stroke="#000" stroke-miterlimit="10" stroke-width=".573" d="M56.498 18.023c.119-.939-.206-1.912-.882-2.645a28.08 28.08 0 00-.696-.73 71.254 71.254 0 01-4.4-1.962c-2.792-1.365-5.57-2.939-8.666-3.358-1.034-.138-2.105-.145-3.099.173-.99.314-1.896.98-2.319 1.905-.138.304-.223.659-.104.973.2.523.841.713 1.402.84 3.549.805 7.101 1.778 10.295 3.477.372.196.737.405 1.098.621a72.25 72.25 0 005.256.737c.703.07 1.433.125 2.112-.03h.004z"/><path fill="#fff" stroke="#000" stroke-miterlimit="10" stroke-width=".573" d="M52.774 20.76c.865-.085 1.764-.2 2.48-.676.416-.277.73-.652.947-1.08a3 3 0 00.297-.984c-.679.155-1.409.101-2.112.03a72.506 72.506 0 01-8.966-1.496c-3.039-.71-6.114-1.625-9.227-1.344-1.037.09-2.085.327-2.974.854-.889.527-1.612 1.375-1.805 2.368-.064.328-.06.69.129.97.314.462.987.506 1.561.506 3.647 0 7.33.156 10.846 1.102l.294.084c2.849.06 5.701-.047 8.537-.328l-.007-.006z"/><path fill="#000" d="M68.635 33.36a46.582 46.582 0 0112.126.422c1.217.203 2.708.754 2.775 1.963.06 1.074-1.078 1.804-2.102 2.172-2.758.986-5.749 1.081-8.683 1.166-2.94.084-7.222.33-9.578-1.798-3.187-2.881 3.88-3.773 5.462-3.922v-.003z"/><path fill="#fff" d="M80.886 31.647a50.448 50.448 0 00-.145-4.317c-.105-1.935 0-7.226-2.602-9.668-4.438-4.162-8.96-5.385-14.905-7.026-1.517-.42-4.755-1.402-6.174-2.399-1.771-1.243-2.9-2.47-4.475-3.942-1.176-1.101-5.148-4.057-6.81-.909-.551 1.044.013 3.388.753 4.297.75.916 1.842 1.618 2.779 2.358 1.331 1.047 2.73 2.01 4.011 3.108.558.476 1.089.98 1.599 1.496.236.24.47.48.696.73.676.733.997 1.706.882 2.645a3.031 3.031 0 01-.297.983c-.217.433-.53.804-.947 1.081-.716.476-1.618.588-2.48.676-2.836.28-5.688.388-8.537.327-.186-.003-.372-.006-.555-.013-3.126-.088-6.33-.375-9.318.513-.997.298-1.97.737-2.73 1.426-.76.692-1.288 1.665-1.264 2.675.006.335.084.686.33.923.41.392 1.076.3 1.637.185 3.569-.726 7.208-1.303 10.845-1.077 1.872.118 3.721.45 5.553.844 5.472 1.18 10.829 2.93 16.398 3.53h.017c.017.129.03.254.04.379.116 1.422.248 6.516.248 6.516s.006 5.851-.078 9.151c-.03 1.166-.707.426-.852 1.581-.02.149-.034.311.05.44.102.152.312.185.498.212 5.299.666 10.67 1.335 15.969.67a355.31 355.31 0 01-.136-17.395v-.006.006z"/><path stroke="#000" stroke-miterlimit="10" stroke-width=".573" d="M80.886 31.647a50.448 50.448 0 00-.145-4.317c-.105-1.935 0-7.226-2.602-9.668-4.438-4.162-8.96-5.385-14.905-7.026-1.517-.42-4.755-1.402-6.174-2.399-1.771-1.243-2.9-2.47-4.475-3.942-1.176-1.101-5.148-4.057-6.81-.909-.551 1.044.013 3.388.753 4.297.75.916 1.842 1.618 2.779 2.358 1.331 1.047 2.73 2.01 4.011 3.108.558.476 1.089.98 1.599 1.496.236.24.47.48.696.73.676.733.997 1.706.882 2.645a3.031 3.031 0 01-.297.983c-.217.433-.53.804-.947 1.081-.716.476-1.618.588-2.48.676-2.836.28-5.688.388-8.537.327-.186-.003-.372-.006-.555-.013-3.126-.088-6.33-.375-9.318.513-.997.298-1.97.737-2.73 1.426-.76.692-1.288 1.665-1.264 2.675.006.335.084.686.33.923.41.392 1.076.3 1.637.185 3.569-.726 7.208-1.303 10.845-1.077 1.872.118 3.721.45 5.553.844 5.472 1.18 10.829 2.93 16.398 3.53h.017c.017.129.03.254.04.379.116 1.422.248 6.516.248 6.516s.006 5.851-.078 9.151c-.03 1.166-.707.426-.852 1.581-.02.149-.034.311.05.44.102.152.312.185.498.212 5.299.666 10.67 1.335 15.969.67a355.31 355.31 0 01-.136-17.395v-.006.006z"/><path fill="#33F28B" stroke="#000" stroke-miterlimit="10" stroke-width=".419" d="M77.906 39.4c-.413.05-.856.088-1.339.095-3.944.07-9.54.77-14.56-3.517v67.218H83.24V35.975c-1.366 1.922-3.269 3.162-5.334 3.425z"/><path fill="#000" stroke="#fff" stroke-miterlimit="10" stroke-width=".419" d="M17.901 62.301c-2.486.706-4.513 2.588-6.131 4.547-1.619 1.96-2.993 4.094-4.912 5.819-.785.705-1.686 1.352-2.703 1.626-.023.004-.045.011-.072.018.106.494.305.98.676 1.33.661.622 1.75.688 2.629.344.875-.343 1.57-1.023 2.14-1.75 1.397-1.78 2.208-3.896 3.278-5.866 1.074-1.97 2.538-3.904 4.675-4.77 1.566-.636 3.311-.629 4.956-1.038.244-.062.488-.139.732-.23a5.991 5.991 0 00-.503-.56c-1.596.147-3.192.08-4.765.53z"/><path fill="#fff" stroke="#000" stroke-miterlimit="10" stroke-width=".419" d="M25.376 105.206c-.944-1.815-1.652-6.584-1.612-8.648.198-10.099 2.042-17.628 3.778-22.04-3.847-2.383-12.228-7.12-11.895-13.738.167-3.283-10.063 21.735-11.161 24.91l-.678 5.024c-.288 1.249-.025 4.162-.025 4.162s18.168 9.292 21.59 10.331l.003-.001z"/><path stroke="#000" stroke-width=".424" d="M6.547 87.684c2.965 2.76 10.182 8.336 15.327 8.573M7.192 82.756c2.966 2.76 10.182 8.336 15.328 8.573M7.855 77.696c2.965 2.758 10.182 8.335 15.328 8.572M8.639 71.715c2.965 2.758 10.182 8.335 15.327 8.572"/><path fill="#000" stroke="#fff" stroke-miterlimit="10" stroke-width=".419" d="M6.936 72.714c1.92-1.751 3.293-3.913 4.912-5.894 1.618-1.984 3.65-3.887 6.132-4.605 1.57-.451 3.17-.385 4.765-.537a7 7 0 00-4.28-1.999c-2.61-.233-5.209.992-7.214 2.692-2.005 1.695-3.534 3.839-5.152 5.886-.717.903-1.667 1.888-2.824 1.773-.552-.056-1.01-.374-1.33-.807-.431.996-.803 2.01-.83 3.024-.014.545.08 1.096.399 1.51.54.704 1.648.882 2.647.63.023-.004.045-.011.072-.018 1.017-.278 1.918-.933 2.703-1.648v-.007z"/><path fill="#000" stroke="#fff" stroke-miterlimit="10" stroke-width=".573" d="M46.953 64.2c-2.163-4.558-6.399-8.364-11.483-9.286-1.915-.913-4.174-.836-6.37-.684-5.591.385-13.89.962-18.897 3.477-1.318.662-2.662 1.343-3.721 2.357-1.004.958-1.707 2.167-2.396 3.358-.622 1.077-1.248 2.153-1.87 3.23-.508.876-1.03 1.794-1.096 2.793-.03.462.066.946.277 1.36.245.478.641.863 1.17 1 1.108.288 2.185-.537 3.026-1.321 1.892-1.772 3.714-3.658 5.929-5.027 2.214-1.369 3.918-1.827 6.425-1.202 1.559.388 2.251 2.604 2.607 4.139.055.244.096.492.126.743.033.3.048.603.037.903-.075 2.123-.782 2.808-2.607 3.976-.963.618-2.604 2.397-3.285 3.3-1.085 1.439-.222 3.836 1.559 4.317 1.177.322 2.451-.122 3.436-.821.982-.7 1.756-1.635 2.607-2.475 2.648-2.608 6.092-4.284 9.25-6.285.386-.244.771-.5 1.152-.762.634.41 1.1.992 1.3 2.153.29 1.672-.166 3.381-.066 5.072.026.466.103.943.34 1.346.415.71 1.248 1.084 2.048 1.354a17.615 17.615 0 0010.217.3c.444-.123.904-.27 1.24-.578.526-.47.67-1.205.77-1.89.73-4.993.456-10.254-1.725-14.852v.004z"/><path fill="#fff" stroke="#000" stroke-miterlimit="10" stroke-width=".419" d="M19.809 60.553c-1.307 1.012-2.35 2.285-3.343 3.572-5.475 7.12-9.653 16.458-12.383 24.79 0 0-.042-1.39.826-8.397.332-2.42.713-4.838 1.198-7.24a71.33 71.33 0 011.768-7.039c.283-.91.438-1.85 1.223-2.493.833-.678 1.988-1.218 2.971-1.66 2.417-1.084 5.097-1.628 7.736-1.535l.004.002z"/><path fill="#fff" stroke="#000" stroke-miterlimit="10" stroke-width=".573" d="M77.382 101.152a6.41 6.41 0 00-1.068-1.966c-1.464-1.811-4.4-2.95-6.837-2.456-1.457.172-3.137.713-5.04 1.777l-.824.462c-4.999 2.801-6.104 3.433-11.795 6.017-.5.226-.994.108-1.335-.308-.024-6.043.108-26.849.088-32.895-4.174 3.283-9.588 3.985-15.283 2.076l-2.662-.94-.159 42.518c.227 4.009-.562 9.217 2.82 11.612 1.187.841 1.25.897 2.662 1.316 2.126.624 4.877.557 6.834-.457 4.448-2.307 9.058-4.746 13.684-7.191-.03 1.533-.057 3.067-.084 4.597a978.25 978.25 0 00-.071 24.184c-.05 3.523-.074 2.655-.068 6.178 0 .5-1.495 1.187 8.823 2.204 10.318 1.018 11.089 0 11.089 0v-50.996c-.146-1.935-.152-3.959-.77-5.729l-.004-.003z"/><path fill="#fff" d="M50.584 104.347l-.118 8.557.118-8.557z"/><path stroke="#000" stroke-miterlimit="10" stroke-width=".419" d="M50.584 104.347l-.118 8.557"/><path fill="#fff" d="M51.125 106.452a2.582 2.582 0 01-.487-1.348c-.007-.111-.003-.233.071-.321.108-.132.321-.128.487-.071.372.125.642.426.882.723a15.823 15.823 0 012.332 3.922"/><path stroke="#000" stroke-miterlimit="10" stroke-width=".419" d="M51.125 106.452a2.582 2.582 0 01-.487-1.348c-.007-.111-.003-.233.071-.321.108-.132.321-.128.487-.071.372.125.642.426.882.723a15.823 15.823 0 012.332 3.922"/><path fill="#fff" d="M52.345 106.705c.05.115.169.412.3.744.318.8.335 1.668.105 2.496 0 .007 0 0 .01-.024.028-.074-.04.156-.087.217a.252.252 0 01-.21.101.265.265 0 01-.165-.095c-.088-.098-.122-.226-.153-.351"/><path stroke="#000" stroke-miterlimit="10" stroke-width=".419" d="M52.345 106.705c.05.115.169.412.3.744.318.8.335 1.668.105 2.496 0 .007 0 0 .01-.024.028-.074-.04.156-.087.217a.252.252 0 01-.21.101.265.265 0 01-.165-.095c-.088-.098-.122-.226-.153-.351M60.25 119.728a78.224 78.224 0 008.878-4.854"/><path fill="#000" stroke="#fff" stroke-miterlimit="10" stroke-width=".573" d="M134.3 99.067c2.717.52 5.59-.331 8.111-1.453 2.518-1.125 4.894-2.54 7.587-3.293 1.099-.308 2.278-.5 3.387-.274a.53.53 0 00.074.017c.149-.53.2-1.105.024-1.628-.318-.93-1.322-1.524-2.329-1.615-1.007-.091-2.004.236-2.913.669-2.221 1.057-4.049 2.73-6.057 4.131-2.007 1.402-4.37 2.578-6.833 2.385-1.808-.142-3.468-1-5.232-1.398a6.337 6.337 0 00-.811-.132c.05.267.118.53.199.79 1.592.632 3.079 1.477 4.796 1.804h-.003v-.003z"/><path fill="#000" stroke="#fff" stroke-miterlimit="10" stroke-width=".573" d="M149.799 94.253c-2.69.753-5.066 2.169-7.588 3.294-2.518 1.124-5.394 1.972-8.111 1.452-1.717-.328-3.204-1.172-4.796-1.804a7.415 7.415 0 003.086 4.013c2.369 1.497 5.445 1.578 8.192.919 2.745-.658 5.259-1.983 7.811-3.168 1.129-.524 2.521-1.01 3.562-.335.497.325.777.852.865 1.426.903-.75 1.758-1.547 2.285-2.513.284-.517.466-1.095.365-1.649-.166-.943-1.132-1.655-2.21-1.895a.594.594 0 00-.075-.017c-1.105-.226-2.288-.034-3.386.274v.003z"/><path fill="#fff" stroke="#000" stroke-miterlimit="10" stroke-width=".419" d="M151.624 80.44a6.054 6.054 0 00-.132-1.351 4.613 4.613 0 00-.128-.483c.057.253.104.473.138.631.078.372.115.777.122 1.2v.003z"/><path fill="#000" stroke="#fff" stroke-miterlimit="10" stroke-width=".419" d="M149.346 86.571c.564-.996 1.186-2.317 1.612-3.253a7.238 7.238 0 00.666-2.875 6.107 6.107 0 00-.122-1.199c-.034-.159-.081-.378-.138-.632-.217-.706-.568-1.314-1.058-1.736a2.445 2.445 0 00-1.376-.591 2.792 2.792 0 00-.625.013c.047.311.088.565.108.662.193.916.193 1.977-.024 3.068-.287 1.47-1.054 3.175-2.027 4.898-.974 1.726-2.167 3.49-3.326 5.074a88.037 88.037 0 01-4.259 5.361l2.873 1.621c.832-.905 2.521-2.719 4.167-4.969 1.156-1.584 2.552-3.716 3.529-5.442z"/><path fill="#F8645B" stroke="#000" stroke-miterlimit="10" stroke-width=".419" d="M147.136 75.613l.169-.095c.608-.32 1.358-.621 2.071-.645.697-.027 1.258.132 1.711.453.01-.027.006-.061-.028-.078l-2.798-1.335-.074-.04c-.906-.47-2.109-.382-3.502.402-3.471 1.942-5.377 5.108-5.907 6.084l3.19 1.817-.791-.463c.592-1.074 2.586-4.209 5.955-6.097l.004-.003z"/><path fill="#fff" stroke="#000" stroke-miterlimit="10" stroke-width=".419" d="M141.968 82.173c.395-.73 1.446-2.52 3.238-4.226-1.856 1.594-2.88 3.574-3.238 4.226z"/><path fill="#F8645B" stroke="#000" stroke-miterlimit="10" stroke-width=".419" d="M152.398 77.423c-.048-.175-.112-.34-.169-.493-.277-.723-.646-1.26-1.139-1.608-.456-.32-1.014-.476-1.71-.453-.717.028-1.464.328-2.072.646l-.169.094c-3.37 1.885-5.364 5.023-5.955 6.098l.791.463c.358-.65 1.385-2.632 3.237-4.227a9.875 9.875 0 011.586-1.118c.557-.31 1.057-.476 1.51-.533a2.8 2.8 0 01.626-.014 2.443 2.443 0 011.375.591c.49.423.842 1.03 1.058 1.737.047.158.091.317.128.483a6.277 6.277 0 01.132 1.351 7.19 7.19 0 01-.666 2.875c-.426.936-1.047 2.256-1.612 3.253-.973 1.726-2.369 3.858-3.528 5.442-1.646 2.25-3.336 4.064-4.167 4.97-.156.168-.284.31-.372.411l.821.825a87.219 87.219 0 004.661-5.899c2.464-3.422 4.988-7.553 5.613-10.752.112-.574.186-1.19.23-1.7a6.857 6.857 0 00-.206-2.445l-.003.003z"/><path fill="#F8645B" stroke="#000" stroke-width=".573" d="M143.266 73.84l.155.087c1.907 1.111 2.806 2.517 2.806 3.875v18.045c0 1.396-.954 2.838-2.964 3.963-2.008 1.122-4.654 1.692-7.314 1.692s-5.306-.567-7.314-1.692c-2.011-1.125-2.964-2.57-2.964-3.963V77.802c0-1.396.953-2.838 2.964-3.963 2.008-1.125 4.654-1.692 7.314-1.692s5.306.57 7.314 1.692h.003z"/><path fill="#fff" stroke="#000" stroke-width=".419" d="M128.635 73.84c2.008-1.126 4.654-1.693 7.314-1.693s5.306.57 7.314 1.692c2.01 1.125 2.96 2.57 2.96 3.963 0 1.391-.953 2.837-2.964 3.962-2.007 1.125-4.654 1.693-7.314 1.693-2.659 0-5.306-.568-7.313-1.693-2.011-1.125-2.964-2.57-2.964-3.962 0-1.392.953-2.838 2.964-3.963h.003z"/><path fill="#000" stroke="#000" stroke-width=".419" d="M129.081 77.764c1.893-1.07 4.387-1.61 6.895-1.61s5.002.54 6.895 1.61l.108-.189-.108.19c1.044.59 1.787 1.276 2.24 1.993-.453.716-1.196 1.401-2.24 1.993-1.893 1.07-4.387 1.611-6.895 1.611s-5.002-.54-6.895-1.611c-1.044-.592-1.788-1.277-2.24-1.993.452-.717 1.196-1.402 2.24-1.993z"/><path fill="#000" stroke="#fff" stroke-miterlimit="10" stroke-width=".573" d="M129.565 110.397c-2.359.351-14.915 27.569-17.984 0-.439-12.087.615-11.62 4.472-15.441.388-.315.78-.622 1.176-.92 3.241-2.435 6.82-4.54 9.459-7.583.852-.983 1.606-2.06 2.606-2.898 1.001-.838 2.342-1.426 3.64-1.18 1.964.372 3.099 2.885 2.052 4.534-.659 1.034-2.278 3.098-3.269 3.848-1.872 1.418-2.578 2.222-2.477 4.523.017.328.058.652.118.973.055.267.119.53.2.79a7.43 7.43 0 003.086 4.013c2.369 1.497 5.448 1.578 8.192.919 2.744-.658 5.259-1.986 7.81-3.168 1.129-.524 2.522-1.01 3.563-.335.496.321.777.852.865 1.426.078.496.013 1.03-.176 1.496-.409 1.007-1.254 1.774-2.075 2.503l-3.021 2.693c-1.116.993-2.251 2-3.61 2.645-1.436.686-3.049.929-4.634 1.165-6.009.895-3.988-.895-9.997 0l.004-.003z"/><path fill="#33F28B" stroke="#000" stroke-miterlimit="10" stroke-width=".573" d="M129.227 110.3c-5.286 3.435-12.965 4.006-17.754.172-.027 7.06-.054 14.12-.084 21.181-.393.483-.96.625-1.535.358-6.56-3.03-7.81-3.76-13.603-7.064l-.886-.503c-6.06-3.453-10.206-2.206-12.126-.061a5.021 5.021 0 00-.794 1.169c-1.339 2.75-1.4 5.898-1.38 8.935.008 1.419 0 4.327 0 4.381l.018.01c-.034.652.01 15.952.034 16.587l-.055 2.307s15.354-.578 18.748-1.976c-.027-1.797.013-5.118-.02-6.902 2.875 1.548 5.741 3.091 8.58 4.612a1140.82 1140.82 0 007.128 3.79c2.244 1.182 5.404 1.263 7.845.533 1.622-.486 2.666-1.023 4.028-2.006 2.498-1.378 2.008-8.412 2.265-13.094v-32.416l-.413-.013h.004z"/><path fill="#fff" d="M111.551 131.224l.138 9.995-.138-9.995z"/><path fill="#33F28B" d="M111.551 131.224l.138 9.995-.138-9.995z"/><path stroke="#000" stroke-miterlimit="10" stroke-width=".419" d="M111.551 131.224l.138 9.995"/><path fill="#fff" d="M110.929 133.683a3.032 3.032 0 00.558-1.574c.006-.132.003-.271-.081-.375-.125-.152-.369-.149-.558-.085-.426.146-.737.497-1.014.845a18.629 18.629 0 00-2.68 4.584"/><path fill="#33F28B" d="M110.929 133.683a3.032 3.032 0 00.558-1.574c.006-.132.003-.271-.081-.375-.125-.152-.369-.149-.558-.085-.426.146-.737.497-1.014.845a18.629 18.629 0 00-2.68 4.584"/><path stroke="#000" stroke-miterlimit="10" stroke-width=".419" d="M110.929 133.683a3.032 3.032 0 00.558-1.574c.006-.132.003-.271-.081-.375-.125-.152-.369-.149-.558-.085-.426.146-.737.497-1.014.845a18.629 18.629 0 00-2.68 4.584"/><path fill="#fff" d="M109.526 133.977a30.83 30.83 0 00-.344.868c-.366.932-.382 1.949-.122 2.915 0 .007 0 0-.01-.027-.034-.084.044.179.101.254.058.074.149.128.24.118a.302.302 0 00.189-.108c.102-.112.142-.264.176-.412"/><path fill="#33F28B" d="M109.526 133.977a30.83 30.83 0 00-.344.868c-.366.932-.382 1.949-.122 2.915 0 .007 0 0-.01-.027-.034-.084.044.179.101.254.058.074.149.128.24.118a.302.302 0 00.189-.108c.102-.112.142-.264.176-.412"/><path stroke="#000" stroke-miterlimit="10" stroke-width=".419" d="M109.526 133.977a30.83 30.83 0 00-.344.868c-.366.932-.382 1.949-.122 2.915 0 .007 0 0-.01-.027-.034-.084.044.179.101.254.058.074.149.128.24.118a.302.302 0 00.189-.108c.102-.112.142-.264.176-.412M100.452 149.188a88.478 88.478 0 01-10.19-5.668"/><path fill="#fff" stroke="#000" stroke-miterlimit="10" stroke-width=".573" d="M101.657 62.099c-.115-.897.205-1.828.866-2.526.223-.236.452-.469.686-.695a72.296 72.296 0 004.332-1.875c2.749-1.302 5.485-2.806 8.533-3.204 1.02-.132 2.074-.138 3.052.165.978.3 1.866.938 2.283 1.818.136.294.219.627.105.928-.195.499-.829.68-1.382.802-3.497.77-6.991 1.697-10.137 3.319a25.4 25.4 0 00-1.083.593 72.052 72.052 0 01-5.174.705c-.693.068-1.413.118-2.081-.027V62.1z"/><path fill="#fff" stroke="#000" stroke-miterlimit="10" stroke-width=".573" d="M105.343 64.824c-.859-.084-1.756-.197-2.471-.673a2.78 2.78 0 01-.943-1.08 2.997 2.997 0 01-.295-.983c.679.155 1.404.102 2.104.028a72.992 72.992 0 008.93-1.495c3.026-.708 6.089-1.621 9.189-1.343 1.035.092 2.077.324 2.964.853.887.526 1.608 1.372 1.798 2.363.064.328.064.687-.126.966-.314.462-.986.504-1.556.504-3.632 0-7.303.155-10.802 1.1-.098.025-.193.056-.292.085-2.84.06-5.681-.05-8.503-.328l.003.003z"/><path fill="#000" stroke="#fff" stroke-miterlimit="10" stroke-width=".419" d="M106.683 59.057c.115 1.943 1.958 3.622 3.905 3.542 1.819-.076 3.415-1.68 3.579-3.47-2.493.17-4.995.146-7.487-.069l.003-.003z"/><path fill="#FFB548" stroke="#000" stroke-miterlimit="10" stroke-width=".573" d="M97.798 34.304c-.198 3.99 1.523 8.129 4.779 10.45.729.516 1.531.954 2.159 1.595 1.496 1.534.559 4.132 1.774 6.113a82.3 82.3 0 007.108-.094c.385-.02.791-.041 1.17.028a5.382 5.382 0 00.926-2.713c.042-.784-.076-1.627.306-2.314.454-.819 1.45-1.127 2.301-1.52 2.572-1.193 4.356-3.708 5.192-6.417 1.77-5.72-.67-12.472-5.692-15.74-2.433-1.585-5.335-2.373-8.236-2.564-1.09-.069-2.208-.059-3.252.264-1.361.42-2.517 1.329-3.527 2.328-2.839 2.813-4.81 6.598-5.012 10.588l.004-.004z"/><path fill="#000" stroke="#fff" stroke-miterlimit="10" stroke-width=".419" d="M113.621 52.368a82.332 82.332 0 01-7.108.094c-.18-.007-.364-.007-.545-.014l-.069 1.17c.145.18.145.426.052.637-.125.288-.42.514-.733.441 0 .888.018 1.776.035 2.66 3.481.05 7.039-.547 10.433-1.366.042-.395.07-.79.084-1.19.014-.472-.212-1.127-.667-1.01l.257-1.196a1.966 1.966 0 00-.569-.194c-.378-.07-.781-.05-1.17-.028v-.004z"/><path fill="#000" stroke="#fff" stroke-miterlimit="10" stroke-width=".419" d="M115.062 59.06c.309-.995.517-2.03.625-3.066-3.395.815-6.956 1.415-10.434 1.366l.021 1.048c.007.156.017.326.125.437.097.097.246.115.382.132.298.031.6.06.899.083 2.488.219 4.994.243 7.486.07.299-.018.594-.038.889-.066l.007-.004z"/><path stroke="#fff" stroke-miterlimit="10" stroke-width=".419" d="M110.029 52.288l-.753-11.34c-.031-.483-.073-.992-.375-1.374-.229-.295-.58-.472-.885-.69a3.394 3.394 0 01-1.406-2.543c-.028-.52.087-1.083.462-1.454.486-.482 1.301-.524 1.933-.25.635.274 1.114.802 1.513 1.35.212.291.413.617.399.975-.013.353-.343.718-.697.641-.257-.055-.42-.301-.521-.54-.357-.865-.215-1.926.431-2.61.649-.683 1.791-.895 2.61-.412 1.117.662 1.246 2.171 1.246 3.445 0 .367-.08.839-.448.919-.358.076-.646-.323-.68-.677-.104-.999 1.027-1.894 2.03-1.651 1.003.243 1.59 1.45 1.225 2.39-.5 1.28-2.152 1.659-3.165 2.61-1.322 1.245-1.368 3.26-1.316 5.054l.171 6.31"/><path fill="#000" d="M90.383 84.462a45.302 45.302 0 00-11.898.417c-1.196.203-2.655.746-2.721 1.947-.06 1.064 1.057 1.79 2.063 2.153 2.704.98 5.64 1.072 8.517 1.156 2.885.084 7.087.325 9.4-1.782 3.126-2.858-3.808-3.74-5.357-3.89h-.004z"/><path fill="#fff" stroke="#000" stroke-miterlimit="10" stroke-width=".573" d="M78.01 75.737c-.017-1.013.021-2.662.142-4.253.104-1.907 0-7.12 2.551-9.525 4.348-4.1 8.778-5.307 14.6-6.926 1.485-.414 4.66-1.381 6.047-2.363 1.735-1.225 2.842-2.432 4.383-3.884 1.152-1.085 5.043-3.998 6.673-.894.54 1.027-.014 3.338-.737 4.232-.734.905-1.804 1.594-2.721 2.321-1.301 1.034-2.672 1.98-3.932 3.063-.547.47-1.066.964-1.564 1.475a25.51 25.51 0 00-.682.717c-.662.72-.98 1.681-.862 2.607.041.33.135.658.29.97.212.425.52.794.928 1.066.703.47 1.585.581 2.43.664 2.78.275 5.573.383 8.363.324.18 0 .363-.007.543-.01 3.06-.087 6.2-.37 9.128.508.976.292 1.931.724 2.676 1.406.744.682 1.263 1.642 1.239 2.638-.007.327-.083.675-.322.908-.398.386-1.052.296-1.603.184-3.496-.716-7.061-1.284-10.623-1.06-1.831.117-3.645.441-5.438.83-5.358 1.163-10.609 2.886-16.064 3.481h-.017a6.826 6.826 0 00-.042.372c-.114 1.403-.242 6.421-.242 6.421s-.007 5.763.076 9.017c.031 1.149.692.421.834 1.56.021.146.035.306-.052.43-.1.15-.304.185-.488.21-5.192.657-10.453 1.315-15.642.661.184-5.71.229-11.425.135-17.14l-.007-.01z"/><path fill="#000" stroke="#fff" stroke-miterlimit="10" stroke-width=".573" d="M83.239 124.383c1.92-2.145 6.066-3.392 12.126.061l.886.503v-37.98c-4.418 3.577-9.302 3.355-13.012 3.24-.355-.01-.7-.02-1.031-.027a12.4 12.4 0 01-1.291-.088c-1.994-.243-3.826-1.375-5.144-3.132v11.328c.618 1.766.625 2.093.77 4.032l.01 55.479c-.256-.01 4.51-.027 4.51-.027-.025-.635 0-13.955 0-13.955 0-.054.01-7.911 0-9.327-.021-3.037.04-6.185 1.378-8.935.196-.402.463-.801.794-1.169l.004-.003z"/></svg></g></svg>