<svg xmlns="http://www.w3.org/2000/svg" xmlns:xlink="http://www.w3.org/1999/xlink" width="187" height="128"><g transform="scale(.99468 .99225)"><svg xmlns="http://www.w3.org/2000/svg" width="188" height="129" fill="none"><path fill="#000" stroke="#fff" stroke-miterlimit="10" stroke-width=".571" d="M144.244 102.088c3.13 5.42 1.833 12.315-2.428 17.124-4.261 4.809-11.098 7.619-18.049 8.293-4.278.417-9.093-.097-11.984-2.855-1.308-1.251-2.09-2.839-2.741-4.433-2.216-5.432-3.113-11.441-1.194-16.958 1.902-5.455 7.842-12.075 15.062-11.875 8.305.234 17.507 4.061 21.334 10.698v.006zM43.71 102.339c-3.13 5.421-1.834 12.315 2.427 17.124 4.261 4.81 11.098 7.62 18.05 8.294 4.278.417 9.093-.097 11.983-2.856 1.308-1.251 2.09-2.839 2.741-4.432 2.217-5.432 3.113-11.441 1.194-16.959-1.902-5.455-7.842-12.075-15.062-11.875-8.305.234-17.507 4.061-21.334 10.699v.005z"/><path fill="#33F28B" stroke="#000" stroke-miterlimit="10" stroke-width=".518" d="M116.094 7.887c13.48 8.413 40.416 28.444 52.885 38.173 11.777 9.189 19.271 15.072 18.534 29.462-.834 16.258-10.452 22.081-20.248 28.375-10.504 6.746-19.231 10.849-29.729 17.596 10.081-13.723-9.133-34.324-21.442-28.315l27.211-15.007c.765-.42 1.359-1.109 1.53-1.934.337-1.627-1.068-2.594-6.031-6.058-2.519-1.759-20.362-16.75-23.035-18.296.731-15.695.325-43.996.325-43.996z"/><path stroke="#000" stroke-miterlimit="10" stroke-width=".571" d="M158.528 64.27c-1.348 2.633-2.981 5.638-5.169 7.631-.914.834-7.385 6.02-8.613 2.502M158.529 73.626a17.952 17.952 0 01-10.339 1.714M156.095 78.995a23.963 23.963 0 01-6.123-1.114c-.982-.314-1.953-.697-2.97-.897-1.017-.2-2.102-.205-3.05.212"/><path fill="#33F28B" stroke="#000" stroke-miterlimit="10" stroke-width=".518" d="M71.572 14.859c-13.48 8.796-38.698 24.445-52.178 33.235C9.433 54.594-.26 59.912.477 74.957c.834 16.998 10.452 23.087 20.248 29.667 10.504 7.054 19.232 11.343 29.73 18.398-10.081-14.349 9.133-35.888 21.442-29.605l-27.21-15.69c-.766-.44-1.36-1.16-1.532-2.022-.337-1.702 1.069-2.713 6.032-6.334 2.52-1.84 20.037-12.485 22.71-14.095-.73-16.41-.325-40.417-.325-40.417z"/><path stroke="#000" stroke-miterlimit="10" stroke-width=".571" d="M29.424 64.521c1.348 2.633 2.982 5.638 5.17 7.631.913.834 7.385 6.02 8.613 2.502M29.424 73.877a17.952 17.952 0 0010.339 1.714M31.857 79.246c2.08-.102 4.147-.48 6.123-1.113.983-.315 1.954-.697 2.97-.897 1.017-.2 2.103-.206 3.05.211"/><path fill="#fff" stroke="#000" stroke-miterlimit="10" stroke-width=".571" d="M111.663 89.928c1.068-1.994 1.942-4.804.114-6.21-.84-.645-1.993-.713-2.987-.336-1.708.645-2.725 2.142-3.747 3.558 2.256.943 4.027 2.685 5.951 4.193.223-.4.452-.8.669-1.205zM106.574 98.33c-.737-.417-1.377-.806-2.73-1.4-1.662-.731-3.37-1.49-4.655-2.776-.012-.011-.023-.023-.029-.034-1.61 1.668-3.313 3.164-5.135 4.45 2.765 1.941 5.82 3.381 9.31 4.158a72.1 72.1 0 003.245-4.398h-.006z"/><path fill="#fff" stroke="#000" stroke-miterlimit="10" stroke-width=".571" d="M133.773 99.998a1.558 1.558 0 00-.851-.457c-.314-.052-.628.045-.931.137-1.536.474-1.622.954-3.158 1.428-1.697-1.782-3.61-3.336-5.826-4.501-3.456-1.817-7.42-2.593-10.693-4.724-.48-.314-.942-.657-1.399-1.01-1.931-1.503-3.696-3.25-5.952-4.193a8.916 8.916 0 00-1.788-.543c-1.428-.263-2.941.006-4.107.88-1.668 1.25-1.919 2.987-1.41 4.546.257.948.793 1.845 1.49 2.553.012.012.017.023.029.035 1.285 1.285 2.993 2.045 4.655 2.776 1.354.594 1.993.982 2.73 1.4.566.319 1.183.65 2.222 1.107.606.263 1.245.577 1.508 1.2.012.051.029.097.034.148.069.588-.211 1.171-.656 1.554-.909.777-2.131.754-3.256.645-1.097-.108-3.273-.388-3.324-.32-3.393-.788-6.375-2.199-9.077-4.1-1.822-1.286-3.524-2.777-5.135-4.45-.01.011-.017.023-.028.034-1.285 1.285-2.993 2.045-4.655 2.776-1.354.594-1.994.982-2.73 1.4a71.931 71.931 0 003.244 4.397 62.154 62.154 0 005.295 5.867 52.514 52.514 0 004.015 3.507c4.69 3.701 10.013 6.585 15.77 8.133 8.757 2.348 13.326 1.691 22.088-.651 1.639-.44 6.689-2.079 6.689-2.079.537-.314.965-.611 1.102-.8 0 0 2.342-8.328-5.9-16.701l.005.006z"/><path fill="#fff" stroke="#000" stroke-miterlimit="10" stroke-width=".571" d="M90.004 108.588c-1.896-1.834-3.65-3.804-5.295-5.866a25.344 25.344 0 01-3.164.514c-1.131.109-2.348.131-3.256-.645-.451-.383-.725-.966-.657-1.554.109-.914.891-1.29 1.617-1.605a22.624 22.624 0 002.222-1.108c.736-.417 1.376-.805 2.73-1.4 1.662-.73 3.37-1.49 4.655-2.776.011-.01.017-.022.029-.034 1.782-1.81 2.581-4.906 0-6.843-1.16-.873-2.68-1.142-4.107-.88a8.33 8.33 0 00-1.788.543c-2.256.943-4.027 2.685-5.952 4.193-.457.354-.92.697-1.4 1.011-3.272 2.13-7.236 2.907-10.692 4.724-2.21 1.16-4.13 2.718-5.826 4.501-1.536-.475-1.622-.954-3.158-1.428-.303-.092-.617-.189-.931-.138-.32.052-.623.223-.852.457-8.242 8.374-5.9 16.702-5.9 16.702.451.611 3.81 2.262 4.524 2.45.874.234 2.684.663 2.684.663 7.974 1.816 14.88 2.279 22.75.165 5.758-1.542 11.087-4.432 15.771-8.133a54.764 54.764 0 01-4.015-3.507l.011-.006z"/><path fill="#F8645B" stroke="#000" stroke-width=".848" d="M38.752 64.65l.006.005h0l53.282 60.476-53.288-60.482zm0 0c-3.436-3.76-6.101-8.239-7.823-13.154a39.992 39.992 0 01-2.177-15.394 39.671 39.671 0 013.842-15.021c2.247-4.67 5.382-8.788 9.205-12.097 3.823-3.31 8.25-5.736 13-7.127A33.499 33.499 0 0169.392.9c4.874.76 9.548 2.588 13.724 5.372 4.176 2.783 7.763 6.46 10.533 10.798l.358.56.357-.56c2.771-4.341 6.361-8.02 10.54-10.805 4.178-2.784 8.855-4.613 13.732-5.37 4.878-.759 9.85-.43 14.602.965 4.751 1.395 9.18 3.827 13.002 7.141 3.823 3.314 6.956 7.44 9.2 12.114a39.692 39.692 0 013.827 15.035 39.987 39.987 0 01-2.2 15.4c-1.73 4.915-4.404 9.392-7.85 13.146h0l-.005.007-53.239 60.429a2.717 2.717 0 01-.899.673 2.558 2.558 0 01-1.067.235h0m-55.255-61.39l55.254 61.39m0 0c-.366 0-.73-.08-1.067-.235m1.067.235l-1.067-.235m0 0a2.728 2.728 0 01-.899-.672l.899.672z"/><path fill="#fff" stroke="#000" stroke-miterlimit="10" stroke-width=".571" d="M79.243 83.375c-.994-.377-2.148-.308-2.988.337-1.827 1.406-.954 4.216.115 6.21.217.405.445.799.668 1.204 1.93-1.502 3.695-3.25 5.952-4.192-1.023-1.417-2.04-2.913-3.747-3.559zM111.663 89.927c1.068-1.994 1.942-4.804.114-6.209-.84-.645-1.993-.714-2.987-.337-1.708.646-2.725 2.142-3.747 3.559 2.256.942 4.027 2.684 5.951 4.192.223-.4.452-.8.669-1.205z"/><path fill="#fff" stroke="#000" stroke-miterlimit="10" stroke-width=".571" d="M133.773 99.997a1.559 1.559 0 00-.851-.457c-.314-.051-.628.046-.931.137-1.536.474-1.622.954-3.158 1.428-1.697-1.782-3.61-3.336-5.826-4.5-3.456-1.817-7.42-2.594-10.693-4.725-.48-.314-.942-.656-1.399-1.01-1.931-1.503-3.696-3.25-5.952-4.193a8.916 8.916 0 00-1.788-.543c-1.428-.262-2.941.006-4.107.88-1.668 1.25-1.919 2.987-1.41 4.547.257.948.793 1.844 1.49 2.553.012.011.017.023.029.034 1.285 1.285 2.993 2.045 4.655 2.776 1.354.594 1.993.982 2.73 1.4.566.32 1.183.65 2.222 1.108.606.262 1.245.576 1.508 1.199.012.051.029.097.034.148.069.589-.211 1.171-.656 1.554-.909.777-2.131.754-3.256.646-1.097-.109-3.273-.389-3.324-.32-3.393-.789-6.375-2.199-9.077-4.101-1.822-1.286-3.524-2.776-5.135-4.45-.01.011-.017.023-.028.034-1.285 1.285-2.993 2.045-4.655 2.776-1.354.594-1.994.983-2.73 1.4a71.975 71.975 0 003.244 4.398 62.019 62.019 0 005.295 5.866 52.08 52.08 0 004.015 3.507c4.69 3.701 10.013 6.586 15.77 8.134 8.757 2.347 13.326 1.69 22.088-.652 1.639-.439 6.689-2.079 6.689-2.079.537-.314.965-.611 1.102-.799 0 0 2.342-8.328-5.9-16.702l.005.006z"/><path fill="#fff" stroke="#000" stroke-miterlimit="10" stroke-width=".571" d="M90.004 108.587c-1.896-1.833-3.65-3.804-5.295-5.866a24.98 24.98 0 01-3.164.514c-1.131.109-2.348.132-3.256-.645-.451-.383-.725-.965-.657-1.554.109-.914.891-1.29 1.617-1.605a22.67 22.67 0 002.222-1.108c.736-.417 1.376-.805 2.73-1.4 1.662-.73 3.37-1.49 4.655-2.775.011-.012.017-.023.029-.034 1.782-1.811 2.581-4.907 0-6.843-1.16-.874-2.68-1.143-4.107-.88a8.324 8.324 0 00-1.788.543c-2.256.942-4.027 2.684-5.952 4.192-.457.354-.92.697-1.4 1.011-3.272 2.13-7.236 2.908-10.692 4.724-2.21 1.16-4.13 2.719-5.826 4.501-1.536-.474-1.622-.954-3.158-1.428-.303-.091-.617-.189-.931-.137-.32.051-.623.223-.852.457-8.242 8.373-5.9 16.701-5.9 16.701.451.611 3.81 2.262 4.524 2.45.874.235 2.684.663 2.684.663 7.974 1.816 14.88 2.279 22.75.166 5.758-1.543 11.087-4.433 15.771-8.134a54.292 54.292 0 01-4.015-3.507l.011-.006z"/></svg></g></svg>