<svg xmlns="http://www.w3.org/2000/svg" xmlns:xlink="http://www.w3.org/1999/xlink" width="156" height="171"><g transform="scale(.98734 .98844)"><svg xmlns="http://www.w3.org/2000/svg" width="158" height="173" fill="none"><path fill="#33F28B" stroke="#000" stroke-miterlimit="10" stroke-width=".571" d="M25.33 94.372c24.12-13.284 59.213-15.965 87.668-8.046L92.92 109.009c-11.965-3.071-26.381-1.956-36.624 3.359L25.33 94.372z"/><path fill="#E12513" stroke="#000" stroke-width=".573" d="M96.727 109.852l19.666-22.217c6.406 2.022 12.416 4.6 17.821 7.74 17.651 10.257 24.867 24.173 21.874 37.412l-42.816-3.931c.899-5.777-2.454-11.663-9.91-15.998l-.144.248.144-.248c-2.04-1.185-4.272-2.186-6.635-3.006z"/><path fill="#F8645B" stroke="#000" stroke-width=".573" d="M2.161 120.376c2.33-8.754 9.16-17.228 20.538-24.149L53.113 113.9c-4.413 2.933-7.133 6.454-8.114 10.128-.98 3.671-.214 7.458 2.269 10.901L8.623 146.313c-6.648-8.15-8.786-17.206-6.462-25.937z"/><path fill="#FFB548" stroke="#000" stroke-width=".573" d="M93.006 171.249l-6.583-24.581c6.132-.797 11.982-2.57 16.785-5.343 4.8-2.772 7.918-6.175 9.334-9.778l42.791 3.929c-2.841 8.519-9.98 16.696-21.471 23.332-11.584 6.687-25.897 10.835-40.856 12.441z"/><path fill="#5FDDE0" stroke="#000" stroke-miterlimit="10" stroke-width=".573" d="M10.197 148.563l39.22-11.553c1.446 1.45 3.231 2.816 5.37 4.059 7.527 4.377 17.732 6.268 27.597 5.683l6.731 25.134c-23.28 1.798-47.655-2.481-65.477-12.838-5.476-3.181-9.946-6.719-13.44-10.485z"/><path fill="#fff" stroke="#000" stroke-miterlimit="10" stroke-width=".571" d="M66.544 56.873c-1.554-1.89-4.798-2.587-6.397-.736-1.531 1.77-.703 4.443-.554 6.78.24 3.815-1.6 7.436-2.205 11.212-.668 4.187.188 8.448 1.04 12.6.76 3.684 1.667 7.637 4.489 10.121 1.257 1.109 2.799 1.823 4.318 2.53 2.885 1.337 5.838 2.691 8.996 3.028 4.17.446 8.305-.914 12.223-2.393 1.451-.549 2.914-1.12 4.187-2.01 1.291-.903 2.342-2.097 3.382-3.28l10.961-12.485c1.559-1.777 3.152-3.605 3.992-5.81.617-1.622.8-3.37.948-5.1a161.51 161.51 0 00.571-16.387c-.011-.88-.04-1.794-.405-2.593-.617-1.36-2.245-2.182-3.707-1.862-1.462.32-2.605 1.736-2.599 3.233-.051-2.262-2.125-4.296-4.387-4.256-2.262.04-4.278 2.188-4.124 4.444-.177-1.525-.462-3.233-1.724-4.107-1.406-.97-3.376-.405-4.776.566-4.398 3.05-5.5 8.967-8.305 13.52a19.53 19.53 0 01-9.818 8.025c-.788.29-1.68.52-2.44.165-1.004-.474-1.313-1.736-1.433-2.838-.445-4.09.629-8.888-2.233-12.367z"/><path stroke="#000" stroke-miterlimit="10" stroke-width=".571" d="M97.182 53.298c-.983 3.056-1.97 6.129-3.404 8.996-1.44 2.873-3.353 5.558-5.918 7.488M105.807 53.298c-.292 8.916-4.37 17.558-10.664 22.602"/><path fill="#000" stroke="#fff" stroke-miterlimit="10" stroke-width=".571" d="M62.003 95.428c2.507 1.845 11.835 3.998 15.073 4.198 8.026.491 16.45-2.93 16.45-2.879v36.743c-15.312 11.838-30.324.828-30.38.828l-1.143-38.884v-.006z"/><path fill="#fff" stroke="#000" stroke-miterlimit="10" stroke-width=".424" d="M90.731 66.725c.874-.421 1.776-.954 2.238-1.814a1.84 1.84 0 00-.407-.787c-.468-.523-1.146-.773-1.803-.982-5.79-1.835-12.009-1.827-17.978-.784-1.568.275-3.167.637-4.495 1.545-.307.21-.604.455-.788.787-.215.385-.247.83-.17 1.271.01-.16.02-.32.027-.48 6.588 4.446 16.24 4.673 23.375 1.242l.001.002z"/><path fill="#5FDDE0" stroke="#000" stroke-miterlimit="10" stroke-width=".424" d="M69.448 73.999c-.083 1.908-.182 3.781-.069 5.729.03.505.07 1.03.315 1.467.262.465.724.767 1.177 1.033 2.89 1.702 6.18 2.716 9.506 2.75 3.326.032 6.681-.94 9.412-2.9.254-.183.51-.384.645-.671.126-.271.126-.585.123-.887-.027-2.12.253-4.5.241-6.725-3.635 1.716-7.448 2.016-11.49 2.037-3.4.019-6.967-.217-9.861-1.833h.001z"/><path fill="#000" stroke="#fff" stroke-miterlimit="10" stroke-width=".424" d="M89.379 67.598c.743-.3 1.51-.682 1.901-1.3a1.253 1.253 0 00-.345-.563c-.397-.374-.974-.553-1.532-.703-4.922-1.314-10.209-1.31-15.281-.56-1.332.196-2.692.455-3.822 1.106-.26.151-.513.327-.67.564-.182.276-.127.68-.12.567 5.6 3.184 13.804 3.346 19.868.89z"/><path fill="#5FDDE0" stroke="#000" stroke-miterlimit="10" stroke-width=".424" d="M93.055 64.738a2.513 2.513 0 01-.085.171c-.462.86-1.364 1.393-2.237 1.814-7.135 3.432-16.787 3.205-23.375-1.242l-.027.48c-.104 1.738-.333 3.536-.41 5.262-.011.248-.02.505.07.735.087.22.258.393.428.555a10.025 10.025 0 002.03 1.486c2.893 1.615 6.46 1.852 9.861 1.833 4.043-.022 7.856-.321 11.49-2.037.187-.088.373-.18.559-.275.548-.282 1.126-.615 1.39-1.185.168-.362.186-.776.194-1.176.04-2.039.5-4.42.114-6.421h-.002z"/><path fill="#33F28B" stroke="#000" stroke-miterlimit="10" stroke-width=".538" d="M88.017 16.107c2.939-5.323 6.855-10.264 11.99-13.903.182-.13.365-.26.553-.383 3.769-2.555 8.662 1.325 6.554 5.176-.023.048-.047.089-.07.136-2.162 3.998-3.174 8.574-6.107 12.125-3.356 4.063-8.798 6.254-12.366 10.158-3.08 3.374-4.523 7.75-5.624 12.048-1.902 7.414.17 19.391-1.101 26.01-4.187.242-1.95-9.622-1.89-12.172.106-4.587-.207-9.21.365-13.767 1.095-8.78 3.344-17.525 7.708-25.422l-.012-.006z"/><path stroke="#000" stroke-miterlimit="10" stroke-width=".538" d="M83.135 27.814c5.053-10.464 12.214-16.877 18.962-20.94"/><path fill="#33F28B" stroke="#000" stroke-miterlimit="10" stroke-width=".538" d="M75.933 25.982c-2.555-3.827-6.112-7.466-10.97-10.299-.171-.1-.348-.2-.524-.3-3.575-2.002-8.733.288-6.896 3.056.024.03.041.065.065.094 1.873 2.874 2.556 6.054 5.235 8.674 3.062 2.998 8.332 4.876 11.612 7.78 2.833 2.508 3.963 5.588 4.758 8.59 1.373 5.177-.93 19.198-.13 23.785.984.041 3.481-.66 3.481-.66-.3-4.074-.547-20.468-.736-22.895-.477-6.047-2.096-12.154-5.895-17.83v.005z"/><path stroke="#000" stroke-miterlimit="10" stroke-width=".538" d="M79.973 34.286c-4.305-7.473-10.988-12.337-17.43-15.576"/></svg></g></svg>