<svg xmlns="http://www.w3.org/2000/svg" width="2650" height="428" fill="none"><g clip-path="url(#clip0_1_13)"><g clip-path="url(#clip1_1_13)"><path fill="#000" fill-rule="evenodd" d="M499.415 364.116c63.786-34.46 119.425-73.664 119.425-73.664s-73.805-16.286-133.412 39.736c-16.636 15.634-28.475 33.212-36.9 50.622 5.411-17.513 12.851-36.771 23.069-57.29 22.044-44.267 96.292-143.938 96.292-143.938s-80.604 1.868-145.156 115.025c8.645-33.841 25.4-85.003 32.147-110.391 12.954-48.751 19.551-92.532 19.551-92.532s-85.904 60.306-91.195 188.781c0 .296-.02.595-.033.889a275.12 275.12 0 00-46.453-77.123c-42.234-49.635-118.954-45.746-118.954-45.746s99.397 59.516 128.734 130.286a350.55 350.55 0 0112.904 37.279 252.687 252.687 0 00-4.112-7.706c-52.972-95.229-148.234-87.257-148.234-87.257s79.447 47.6 112.892 116.212c9.234 18.94 20.095 46.72 30.375 78.958h142.742c6.473-7.183 13.702-14.119 21.602-20.098 57.013-43.149 89.133-51.714 89.133-51.714s-68.571-19.2-119.601 30.612c-12.997 12.685-22.313 26.888-28.952 40.103 7.783-23.702 21.18-48.643 44.136-61.044z" clip-rule="evenodd"/><path fill="#000" d="M253.94 169.62a3.197 3.197 0 00-3.343 1.268 3.156 3.156 0 00-.042 3.569 3.15 3.15 0 002.054 1.363c31.575 6.741 75.529 30.155 105.597 103.344 18.412 44.819 27.541 100.685 24.148 147.08h6.37c3.353-47.242-5.934-103.969-24.637-149.491-31.116-75.74-77.071-100.068-110.147-107.135v.002zm269.042 43.441c-41.081 30.943-69.122 69.441-85.732 117.689-9.727 28.25-15.462 59.325-17.526 95.503h6.359c2.044-35.438 7.673-65.842 17.173-93.445 16.187-47.016 43.516-84.529 83.551-114.688a3.151 3.151 0 001.234-2.091 3.16 3.16 0 00-.614-2.349 3.145 3.145 0 00-2.096-1.229 3.196 3.196 0 00-2.354.61h.005zm-65.545-85.225a3.186 3.186 0 00-4.397.941c-36.764 56.685-47.211 151.142-49.999 189.128-3.134 42.73-2.225 82.363 1.848 108.348h6.354c-3.785-23.758-5.212-62.196-1.861-107.876 5.813-79.257 23.671-147.105 48.996-186.147a3.185 3.185 0 00.445-2.392 3.193 3.193 0 00-1.386-2.002zm144.652 165.131c-44.037 7.928-78.713 23.222-106.01 46.758-25.339 21.849-44.016 50.339-56.617 86.528h6.76c12.219-34.126 30.044-61.055 54.021-81.731 26.412-22.771 60.089-37.595 102.982-45.315a3.151 3.151 0 002.047-1.313 3.156 3.156 0 00.065-3.525 3.153 3.153 0 00-.863-.89 3.21 3.21 0 00-2.378-.516l-.007.004z"/><path fill="#000" d="M236.468 237.422a3.189 3.189 0 00-4.072 1.762 3.166 3.166 0 001.657 4.104c95.536 39.119 129.32 120.027 129.124 182.963h6.359c.195-65.001-34.627-148.523-133.068-188.829zm320.446 124.872c-22.477 3.885-44.802 16.141-64.56 35.441a172.87 172.87 0 00-23.453 28.516h7.762c19.446-27.941 48.513-52.039 81.326-57.71a3.172 3.172 0 002.454-3.642 3.171 3.171 0 00-3.54-2.6l.011-.005z"/><path fill="#000" fill-rule="evenodd" d="M725.737 368.802c26.778-160.717 103.45-231.524 103.45-231.524s-108.078 60.495-139.012 213.787c9.951-191.682 123.367-299.21 123.367-299.21S657.365 144.16 659.677 387.52c-17.951-205.245 32.217-310.03 32.217-310.03s-79.088 92.966-63.169 303.417c-37.212-113.593-18.168-252.931-18.168-252.931s-49.474 118.363-12.299 253.569c-37.734-88.049-47.145-186.397-47.145-186.397s-14.706 97.815 23.865 195.596c-39.057-68.129-52.948-135.239-52.948-135.239s-6.533 90.844 40.187 170.752h182.591c1.304-19.227 4.943-41.882 12.897-66.9 27.217-85.599 101.974-148.432 101.974-148.432s-97.11 43.856-133.942 157.877zm51.559 57.451h20.722c16.817-32.464 46.537-49.374 46.537-49.374s-43.702 4.425-67.259 49.374z" clip-rule="evenodd"/><path fill="#000" fill-rule="evenodd" d="M751.892 426.253h24.201c20.83-75.664 70.103-115.014 70.103-115.014s-68.709 31.359-94.304 115.014z" clip-rule="evenodd"/><path fill="#000" d="M1.173 220.76v15.233c20.781 18.357 55.047 42.497 68.825 20.82 14.995-23.604-39.531-32.839-68.825-36.053z"/><path fill="#0AA74C" d="M200.784 41.1a3.891 3.891 0 00-1.69.394c-12.298 5.994-24.887 12.934-37.768 20.821 11.091-17.01 33.021-54.991 11.658-60.41-31.118-7.893-21.491 48.465-18.172 64.463-13.829 8.736-27.971 18.527-42.423 29.372 4.935-19.773 18.088-80.001-6.259-75.07-29.62 5.995-4.378 62.678 2.851 77.64-12.53 9.513-25.275 19.801-38.238 30.869 2.471-22.072 8.198-90.293-16.524-82.215-29.624 9.68 3.658 69.046 13.254 85.012-13.24 11.402-26.708 23.596-40.403 36.577 1.063-19.495 2.295-75.508-19.394-77.37l-6.51 11.721v37.124c7.76 13.453 17.98 25.946 22.809 31.732-7.55 7.241-15.549 14.734-22.81 22.44v11.22c1.003-1.249 2.322-2.498 3.556-3.735 8.294-8.369 16.45-16.455 24.596-24.263 13.236 12.202 63.038 55.436 77.979 29.173 14.63-25.709-53.693-30.994-75.058-32.01 13.66-13.005 27.103-25.206 40.329-36.605 11.753 10.885 65.042 58.009 75.018 27.327 7.367-22.66-55.173-28.156-72.787-29.249 13.454-11.521 26.669-22.197 39.647-32.03 11.098 7.596 67.678 44.843 74.293 19.477 6.433-24.67-55.547-22.179-72.153-21.081 13.91-10.457 27.53-19.928 40.857-28.41 13.193 7.61 58.24 31.553 62.55 6.43 3.711-21.617-34.485-15.884-54.46-11.486 12.623-7.72 24.963-14.521 37.017-20.401a3.93 3.93 0 001.786-1.765c20.692-3.312 73.396-14.484 54.035-40.218-16.549-22.011-46.409 17.87-57.584 34.527h-.002z"/><path fill="#000" d="M1.173 279.3v37.073c9.765 2.939 19.029.861 23.95-10.568 5.267-12.214-7.172-20.707-23.95-26.505z"/><path fill="#29AA61" fill-rule="evenodd" d="M292.443 356.289c-42.523 21.865-62.356 41.834-62.356 41.834s35.246-47.995 113.416-75.993c28.115-10.068 29.294-47.87-2.889-50.028-34.343-2.306-88.518 58.397-121.179 99.648 29.939-50.296 100.566-115.898 83.873-135.92-32.659-39.205-103.598 124.748-103.598 124.748s59.837-142.162 26.06-139.047c-51.696 4.774-44.582 172.137-44.582 172.137s-21.509-103.881-50.26-90.063c-25.706 12.34-8.903 47.113 22.895 89.523 8.169 10.889 13.438 23.255 16.7 33.125h223.466a13.945 13.945 0 001.433-3.435c7.188-26.83-45.227-33.88-88.294-25.779-51.599 9.702-78.206 23.915-78.206 23.915s13.192-12.71 45.749-25.825c40.009-16.118 133.837-13.882 129.164-47.286-4.382-31.31-65.761-15.017-111.392 8.446z" clip-rule="evenodd"/><path fill="#33F28B" fill-rule="evenodd" d="M146.543 396.806s83.005-92.303 57.882-110.856c-32.767-24.199-76.081 88.747-77.554 92.615l-.041.105.041-.105c1.697-4.495 58.274-154.776 18.11-168.2-21.906-7.324-34.268 34.339-42.488 80.684-4.566 25.743-8.035 53.708-9.905 70.168-.473 4.81-.993 9.616-1.557 14.416 0 0 .546-5.531 1.557-14.416 4.966-49.582 17.546-209.152-28.276-191.948-37.573 14.108 6.94 174.509 8.137 178.794.019.063.024.094.024.094l-.024-.094C71.427 344.426 40.467 235.128.923 219.211v93.927c39.686 39.955 57.736 61.044 57.736 61.044S32.254 351.811.923 330.989v61.292c19.396 8.127 33.812 13.041 33.812 13.041s-14.881-5.057-33.799-9.24v30.175H159.52a1769.705 1769.705 0 0140.493-26.43c26.358-16.664 46.626-40.395 38.681-57.052-14.754-30.95-92.15 54.031-92.15 54.031z" clip-rule="evenodd"/><path fill="#187F8B" d="M66.97 238.332c-17.96-7.842-22.453 27.252-23.533 41.453a2.749 2.749 0 00-.906.834c-5.508 8-10.865 16.687-16.07 26.057.902-14.396 1.15-45.545-13.967-41.452-22.031 5.97 3.693 37.484 11.36 46.226-5.497 10.23-10.814 21.218-15.954 32.961-1.35-4.853-3.799-13.078-6.98-21.262v19.855a190.566 190.566 0 005.774 4.185A558.65 558.65 0 00.92 361.126v15.527c3.617-9.699 7.337-18.975 11.162-27.831 9.53.83 57.598 4.14 52.798-13.869-4.671-17.507-42.15 5.649-52.04 12.124 4.941-11.321 10.048-21.931 15.319-31.83 10.831.106 47.1-.79 40.962-17.84-5.286-14.672-26.91 2.202-37.727 11.894 5.11-9.179 10.366-17.686 15.77-25.52a2.781 2.781 0 00.486-1.716c11.63-9.258 40.326-34.558 19.32-43.733zM.924 414.245v12.006h33.974c5.258-1.954 8.704-5.58 8.715-11.451.022-15.689-24.575-8.194-42.689-.555zm0-32.783v3.646c14.883 3.296 57.417 10.987 53.155-9.914-3.2-15.67-39.62-.112-53.155 6.268z"/><path fill="#33F28B" fill-rule="evenodd" d="M954.594 313.944a30.376 30.376 0 01-.471 3.261c-13.771 68.171-58.149 102.849-58.149 102.849s42.063-59.204 44.566-132.993a149.939 149.939 0 00-20.593-25.634 125.516 125.516 0 01-5.307 16.081c-23.356 57.746-56.682 74.282-56.682 74.282s39.476-48.051 48.163-102.38a132.647 132.647 0 00-34.726-18.896 53.668 53.668 0 01-.647 9.559c-8.24 50.298-45.247 99.309-45.247 99.309s27.273-61.56 26.344-114.482c-17.801-3.8-37.711-4.689-59.826-2.07a134.825 134.825 0 00-21.837 4.434c28.187 61.34 23.367 131.769 23.367 131.769s-19.196-78.675-42.766-124.522c-17.776 8.211-33.722 20.121-47.222 34.833 4.772 43.699 23.414 89.441 23.414 89.441s-18.855-12.257-44.695-60.563a184.812 184.812 0 00-19.473 47.42c31.666 25.046 77.475 54.817 77.475 54.817s-36.633-5.766-82.246-29.62a201.054 201.054 0 00-.38 44.96 299.145 299.145 0 0012.351 10.443h300.192c1.582-11.626 2.198-22.844 1.663-33.351-1.42-27.645-7.055-54.753-17.268-78.947z" clip-rule="evenodd"/><path fill="#000" fill-rule="evenodd" d="M315.681 370.637c-12.388-2.596-33.152 47.896-33.152 47.896s20.557-55.499 9.386-56.702c-16.854-1.813-28.826 53.289-28.826 53.289s6.687-59.432-4.568-59.863c-16.224-.612-11.689 37.926-11.689 37.926s-8.167-31.319-19.907-31.15c-10.265.151 7.01 50.792 7.01 50.792s-35.286-55.735-47.608-52.987c-12.321 2.75 35.475 55.519 35.475 55.519s-47.715-42.905-49.322-33.462c-1.607 9.444 47.154 44.36 47.154 44.36h76.675s36.232-52.087 19.372-55.618z" clip-rule="evenodd"/><path fill="#187F8B" d="M674.942 415.458c-2.596 4.169-2.754 7.74-1.294 10.795h30.141c-9.526-11.02-22.114-21.598-28.847-10.795zm56.934 10.795h40.809c4.611-4.443 6.282-9.899 2.63-16.569-7.841-14.293-28.585 1.92-43.439 16.569zm525.334-21.404c.56-9.647.54-19.322-.08-28.966 6.01-1.998 47.82-16.651 35.97-34.798-11.52-17.642-32.16 25.175-36.04 33.617-.27-3.861-.64-7.678-1.11-11.451a203.964 203.964 0 00-2.66-16.115c5.25-4.449 32.5-28.57 14.92-35.708-11.75-4.771-14.83 22.649-15.56 32.769a193.944 193.944 0 00-4.23-15.732c.06-5.432-.12-42.021-16.28-34.267-14.1 6.763 4.65 24.971 12.82 32.057a191.094 191.094 0 015.18 18.665c-7.76-7.538-28.04-25.557-34.2-14.598-7.4 13.153 25.46 16.755 34.83 17.506a201.875 201.875 0 013.74 27.807c-5.62-6.242-33.74-36.393-40.42-22.443-8.27 17.23 33.69 22.688 40.48 23.452.63 10.343.58 20.715-.16 31.049-2.13-2.726-34.07-43.099-41.09-24.181-7.3 19.649 38.43 24.076 41.09 24.317-.39 5.626-.98 11.306-1.76 17.037-.06.459-.13.913-.2 1.371h2.65l.14-1.024c.8-5.888 1.4-11.801 1.8-17.729 10.91-2.664 57.92-15.344 47.41-33.739-9.3-16.244-38.63 19.89-47.24 31.104z"/><path fill="#187F8B" fill-rule="evenodd" d="M516.654 426.253h60.86c1.975-2.983 2.874-5.777 2.453-8.321-3.641-22.065-36.574-10.32-63.313 8.321zm-134.776-68.544c-20.709 6.66-11.494 38.808 2.39 68.546h26.947c-5.464-28.615-16.135-72.791-29.337-68.546zm99.688-26.51c-21.099 9.704-35.053 55.539-43.347 95.052h25.728c7.661-17.23 19.909-38.534 39.308-60.293 16.217-18.19 2.238-45.761-21.689-34.759zm-1.545 79.181a300.805 300.805 0 00-10.088 15.871h32.691c28.24-23.075 66.798-48.13 53.982-65.381-15.42-20.751-53.055 14.879-76.585 49.51zm-39.433-90.647c-28.875-11.444-28.834 66.11-26.927 106.518h22.283c6.159-45.507 21.402-99.876 4.644-106.518zm-94.543 101.439a17.246 17.246 0 00-3.408 5.079h31.173c-10.201-8.806-20.33-12.832-27.765-5.079z" clip-rule="evenodd"/><path fill="#29AA61" d="M638.653 188.439s-.564-2.461-1.219-6.241a3.3 3.3 0 00-.75 1.249 1016.707 1016.707 0 00-8.452 26.752c.75 4.301 1.09 7.124 1.09 7.124s-.985-.733-2.604-2.024a728.673 728.673 0 00-8.687 32.226c.736 2.107 1.43 4.229 2.082 6.363 0 0-1.232-.451-3.29-1.287a593.434 593.434 0 00-7.693 38.053 156.467 156.467 0 012.317 3.301s-1.017-.178-2.767-.534a604.118 604.118 0 00-5.383 42.48 122.988 122.988 0 012.015 2.875s-.825.022-2.278.02c-1.282 14.8-2.095 30.315-2.417 46.735.756.701 1.503 1.412 2.24 2.132 0 0-.836.087-2.284.199a869.475 869.475 0 00.236 38.387h6.666a862.673 862.673 0 01-.235-38.439c-2.023-.226-3.211-.397-3.211-.397s1.214-1.028 3.271-2.641c.333-16.014 1.141-31.16 2.398-45.614-1.609-.147-2.536-.25-2.536-.25s1.003-.764 2.755-2.015a597.097 597.097 0 015.372-42.484 143.274 143.274 0 01-3.073-.149s1.381-1.473 3.729-3.784a596.736 596.736 0 017.209-35.636c-2.171-.057-3.446-.13-3.446-.13s1.769-2.065 4.721-5.208a705.588 705.588 0 019.013-33.399c-2.018.647-3.219.998-3.219.998s2.588-5.36 6.663-12.396a1046.91 1046.91 0 016.139-19.172 3.315 3.315 0 00-.195-2.547c-2.426 3.328-4.177 5.453-4.177 5.453z"/><path fill="#29AA61" d="M648.023 143.18c-16.275-3.889-12.884 25.72-10.589 39.019a3.333 3.333 0 012.889-.999 3.325 3.325 0 012.485 1.78c7.994-11.075 23.164-35.513 5.215-39.8z"/><path fill="#29AA61" d="M640.882 181.331a3.342 3.342 0 00-3.448.868c.355 2.091.762 4.173 1.219 6.244 0 0 1.753-2.125 4.155-5.459a3.337 3.337 0 00-1.926-1.653z"/><path fill="#29AA61" d="M640.882 181.331a3.342 3.342 0 00-3.448.868c.355 2.091.762 4.173 1.219 6.244 0 0 1.753-2.125 4.155-5.459a3.337 3.337 0 00-1.926-1.653zm-38.244-12.186c-16.646 11.857 14.602 38.606 24.071 46.156l1.503-5.098c-2.696-15.819-10.659-51.676-25.574-41.058z"/><path fill="#29AA61" d="M626.709 215.302a112.652 112.652 0 002.604 2.025s-.353-2.824-1.09-7.124c-.512 1.701-1.016 3.4-1.514 5.099z"/><path fill="#29AA61" d="M626.709 215.302a112.652 112.652 0 002.604 2.025s-.353-2.824-1.09-7.124c-.512 1.701-1.015 3.4-1.514 5.099zm-49.923-9.037c-19.332 20.31 27.009 41.051 40.026 46.338.399-1.692.801-3.384 1.21-5.074-5.843-16.877-23.157-60.256-41.236-41.264z"/><path fill="#29AA61" d="M616.812 252.603c2.057.837 3.29 1.289 3.29 1.289s-.736-2.483-2.08-6.363c-.41 1.688-.815 3.38-1.21 5.074z"/><path fill="#29AA61" d="M616.812 252.603c2.057.837 3.29 1.289 3.29 1.289s-.736-2.483-2.08-6.363c-.41 1.688-.815 3.38-1.21 5.074zm-60.649 3.723c-11.486 22.581 39.864 34.523 52.515 37.089.151-.922.296-1.848.45-2.766-9.044-12.598-41.979-55.925-52.965-34.323z"/><path fill="#29AA61" d="M608.669 293.422c1.752.359 2.767.535 2.767.535s-.838-1.249-2.317-3.301c-.154.919-.3 1.846-.45 2.766z"/><path fill="#29AA61" d="M608.669 293.422c1.752.359 2.767.535 2.767.535s-.838-1.249-2.317-3.301c-.154.919-.3 1.846-.45 2.766zm-58.869 18.09c-10.717 25.844 41.541 27.277 53.223 27.277.086-.968.176-1.931.252-2.893-8.428-11.725-41.144-54.099-53.475-24.384zm53.223 27.286c1.453 0 2.278-.02 2.278-.02s-.728-1.084-2.015-2.873l-.263 2.893z"/><path fill="#29AA61" d="M603.023 338.798c1.453 0 2.278-.02 2.278-.02s-.728-1.084-2.015-2.873l-.263 2.893zm-52.294 29.681c-6.113 22.364 39.059 20.209 49.824 19.385 0-.781.029-1.553.046-2.33-9.182-8.56-43.862-39.019-49.87-17.055zm49.833 19.385c.762-.058 1.524-.124 2.284-.197 0 0-.816-.806-2.238-2.133-.014.777-.033 1.549-.046 2.33z"/><path fill="#29AA61" d="M600.562 387.864c.762-.058 1.524-.124 2.284-.197 0 0-.816-.806-2.238-2.133-.014.777-.033 1.549-.046 2.33zm36.302-183.162a1299.618 1299.618 0 00-3.446 11.403c12.77-4.104 58.506-20.45 43.564-39.765-11.799-15.283-30.292 11.403-40.118 28.362z"/><path fill="#29AA61" d="M633.418 216.105a854.4 854.4 0 013.446-11.403c-4.077 7.033-6.663 12.395-6.663 12.395s1.199-.345 3.217-.992z"/><path fill="#29AA61" d="M633.418 216.105a854.4 854.4 0 013.446-11.403c-4.077 7.033-6.663 12.395-6.663 12.395s1.199-.345 3.217-.992zm-9.009 33.399a506.658 506.658 0 00-1.275 5.34c14.576.382 70.02.042 58.646-27.868-10.03-24.613-44.67 8.99-57.371 22.528z"/><path fill="#29AA61" d="M623.134 254.844a652.93 652.93 0 011.275-5.34c-2.952 3.145-4.719 5.209-4.719 5.209s1.274.072 3.444.131z"/><path fill="#29AA61" d="M623.134 254.844a652.93 652.93 0 011.275-5.34c-2.952 3.145-4.719 5.209-4.719 5.209s1.274.072 3.444.131zm-7.209 35.636a481.243 481.243 0 00-.654 3.933c13.855.534 69.326 1.085 56.832-25.197-10.166-21.36-44.717 9.981-56.178 21.264z"/><path fill="#29AA61" d="M612.196 294.262s1.129.073 3.075.151c.215-1.317.434-2.629.656-3.933-2.35 2.303-3.731 3.782-3.731 3.782z"/><path fill="#29AA61" d="M612.196 294.262s1.129.073 3.075.151c.215-1.317.434-2.629.656-3.933-2.35 2.303-3.731 3.782-3.731 3.782zm-2.299 42.633c-.07.749-.142 1.499-.208 2.265 12.292 1.113 65.014 4.642 59.742-17.379-5.306-22.155-48.202 6.962-59.534 15.114z"/><path fill="#29AA61" d="M609.689 339.16c.065-.748.138-1.497.208-2.265-1.74 1.249-2.755 2.015-2.755 2.015s.938.103 2.547.25z"/><path fill="#29AA61" d="M609.689 339.16c.065-.748.138-1.497.208-2.265-1.74 1.249-2.755 2.015-2.755 2.015s.938.103 2.547.25zm-2.398 45.614a435.351 435.351 0 00-.061 3.04c12.467 1.405 56.616 5.039 49.532-15.039-6.835-19.365-39.044 3.832-49.471 11.999z"/><path fill="#29AA61" d="M607.238 387.814c.018-1.018.038-2.03.06-3.038a123.932 123.932 0 00-3.271 2.641s1.181.169 3.211.397z"/><path fill="#29AA61" d="M607.238 387.814c.018-1.018.038-2.03.06-3.038a123.932 123.932 0 00-3.271 2.641s1.181.169 3.211.397z"/><path fill="#000" fill-rule="evenodd" d="M1215.91 261.666c-21.49-7.355-59.46 112.467-68.74 142.935-1.33 4.464-2.09 6.966-2.09 6.966s.75-2.544 2.09-6.966c11.25-37.779 63.42-216.821 43.37-220.813-33.83-6.741-84.2 216.379-84.2 216.379s25.97-162.689 3.21-165.024c-32.8-3.369-31.63 103.034-31.63 103.034s-10.05-86.932-33.91-87.683c-20.88-.658 3.63 140.336 3.63 140.336s-59.998-156.868-85.576-150.575c-25.581 6.293 60.426 156.286 60.426 156.286s-87.899-122.895-93.113-97.106c-5.211 25.786 86.463 126.818 86.463 126.818h156.23s77.32-153.13 43.84-164.587z" clip-rule="evenodd"/><path fill="#00863A" fill-rule="evenodd" d="M1433.14 359.816c-1.8 4.462-3 7.081-3 7.081s1.06-2.717 3-7.081c9.61-23.74 36.52-99.689-7.2-111.359-46.64-12.447-55.83 89.569-55.83 89.569s-7.3-82.207-44.99-79.773c-55.29 3.571-13.4 101.985-13.4 101.985s-29.26-35.241-59.49-10.77c-25.14 20.359 7.97 55.016 26.67 76.776H1503v-80.576c-8.22 6.56-15.45 13.589-20.13 18.384a162.083 162.083 0 01-5.5 5.872s2.05-2.325 5.5-5.872c5.44-6.035 13.83-16 20.13-26.47v-37.806c-2.54-1.333-5.71-2.373-9.61-3.045-27.3-4.697-51.92 44.365-60.25 63.085z" clip-rule="evenodd"/><path fill="#33F28B" fill-rule="evenodd" d="M1266.56 402.555s20.78-49.8-7.79-53.357c-29-3.607-39.49 46.529-39.49 46.529s-7.08-48.389-29.73-41.348c-19.93 6.194-6.06 56.896-6.06 56.896s-34.59-37.412-55.72-32.73c-16.74 3.71 14.8 41.014 20.21 47.706h145.31c7.45-11.6 11.39-21.571 7.03-27.169-10.64-13.656-33.76 3.473-33.76 3.473zm-182.98-1.896c-8.75 7.297 5.53 16.231 22.24 25.603h41.31c-9.11-5.141-56.03-31.885-63.55-25.603z" clip-rule="evenodd"/><path fill="#29AA61" d="M807.713 389.293a88.343 88.343 0 00-15.156 24.842c5.085 4.37 10.628 7.992 16.357 12.116h60.398c-16.941-6.787-39.743-17.292-56.513-31.6a40.52 40.52 0 01-5.086-5.358zm163.31 16.499s-9.119-33.772-26.967-60.866a154.127 154.127 0 00-49.949-1.119c4.507 28.171 20.764 67.101 27.484 82.446h64.83c5.905-12.691 16.309-34.857 23.159-53.314-11.314-8.066-23.677-14.854-36.622-19.815 5.326 38.108-1.935 52.668-1.935 52.668zm-111.458-52.554c-16.753 7.272-30.262 15.9-40.883 25.158 16.465 20.337 43.314 38.116 59.722 47.855h40.311c-10.94-13.279-34.156-43.784-41.703-78.921-5.959 1.624-11.785 3.448-17.447 5.908zm165.565 32.331c-11.77 18.421-24.38 31.83-32.918 40.682h49.978a193.01 193.01 0 005.01-14.807 145.849 145.849 0 00-22.07-25.875z"/><path fill="#187F8B" d="M1099.83 318.528c.08-5.754.11-11.59.09-17.508-.05-9.019-.23-17.844-.55-26.47 17.59-1.499 79.05-8.382 66.57-30.656-11.98-21.373-53.08 14.065-66.72 26.753a695.763 695.763 0 00-2.9-41.064c17.31-3.746 76.68-18.274 63.51-39.112-10.97-17.351-50.74 21.778-63.88 35.519a543.706 543.706 0 00-5.2-36.829c15.09-4.495 67.37-21.769 51.85-40.599-12.73-15.436-42.55 23.16-52.51 37.012-2.5-13.476-5.48-26.228-8.93-38.259 13.07-7.241 54.87-32.387 29.45-44.516-17.32-8.26-27.44 22.754-31.31 38.226a299.005 299.005 0 00-11.22-30.696 3.36 3.36 0 00-1.2-1.417c3.45-15.28 9.27-52.128-15.74-48.987-29.24 3.676-2.42 37.192 9.28 50.264a2.777 2.777 0 00-.08 2.393 292.672 292.672 0 0110.86 29.676c-10.61-13.171-31.35-35.126-42.65-21.724-13.3 15.772 30.76 26.625 45 29.655 3.27 11.573 6.1 23.829 8.49 36.774-11.07-10.1-49.24-42.927-60.8-26.378-11.95 17.11 47.95 26.903 61.26 28.848 2.17 12.153 3.96 24.894 5.38 38.224-13.02-9.199-56.87-38.468-66.59-22.432-13.19 21.78 51.16 24.644 66.85 25.019a677.881 677.881 0 012.88 41.027c-15.32-11.157-62.94-43.68-69.89-22.138-7.12 22.037 52.72 25.158 70.03 25.599.54 14.973.68 29.957.44 44.938-14.38-9.938-71.88-47.862-78.27-23.253-6.57 25.281 62.23 25.817 78.22 25.604a968.213 968.213 0 01-2.05 47.876c-13.22-8.779-68.49-43.822-78.36-22.894-13.345 28.318 62.09 26.095 78.21 25.254-1.43 20.816-3.32 38.588-5.11 54.013h8.26c1.77-15.425 3.64-33.004 5.06-53.605 16.57.997 79.69 2.878 67.75-24.971-8.86-20.665-53.58 10.814-67.51 21.31.96-14.712 1.68-30.64 1.98-47.321 17.83-1.12 88.6-7.107 67.57-30.215-13.19-14.548-54.44 16.549-67.52 27.06z"/><path fill="#D9FEC5" fill-rule="evenodd" d="M1420.55 294.532c-17.18-1.398-32.2 15.832-35.24 44.154-1.97 18.349 1.36 57.647 23.84 59.668 21.42 1.925 32.93-23.722 35.63-47.377 3.77-33.043-7.07-55.04-24.23-56.445zm-105.52 15.024c-13.34-12.965-24.62-17.533-35.57-13.189-14.52 5.772-10.9 30.555 1.6 46.386 9.12 11.552 32.93 34.363 46.25 19.728 12.7-13.962 2.29-38.768-12.28-52.925zm11.06-128.538c-28.79 4.245-32.08 39.992-23.46 73.741 9.28 36.336 37.14 54.953 56.33 47.332 15.88-6.308 29.15-30.667 16.89-71.438-6.61-21.98-26.19-53.119-49.76-49.635z" clip-rule="evenodd"/><path fill="#29AA61" d="M1417.07 320.668c-1.11-.105-2.1.472-2.21 1.579-1.9 19.727-7.32 63.802-15.29 104.006h4.15c1.05-5.494 2.09-10.738 3.12-16.576 5.95-33.739 10.21-67.863 12.04-86.93.11-1.106-.7-1.973-1.81-2.079zm-117.51 7.257a2.031 2.031 0 00-2.86.164c-.18.173-.32.382-.41.613-.09.232-.14.481-.13.731.01.249.07.494.18.718.11.224.27.422.46.581 19.58 18.189 39.97 54.317 52.35 95.519h4.25c-3.12-10.487-6.51-20.088-9.71-28.049-11.92-29.756-28-55.291-44.13-70.277zm59.4-74.775c.25-1.086-.44-2.043-1.52-2.289a2.042 2.042 0 00-1.53.257 2.015 2.015 0 00-.89 1.261c-1.25 5.549-3.24 14.234-4.59 22.406-.97-4.156-1.97-8.304-3-12.443.48-8.714 1.71-19.495 3.01-30.878l.12-1.099a1.89 1.89 0 00-.02-.82 2.044 2.044 0 00-.34-.745 2.113 2.113 0 00-.62-.545 2 2 0 00-2.31.211c-.21.179-.39.399-.51.647s-.19.519-.2.795l-.13 1.098c-.78 6.789-1.53 13.365-2.11 19.435-3.21-11.711-6.26-21.248-8.89-27.947a2.011 2.011 0 00-2.56-1.021 2.01 2.01 0 00-1.09 1.007c-.22.461-.26.988-.1 1.476 2.62 6.718 5.7 16.306 8.91 28.096-4.48-5.755-9.9-11.04-14.62-15.649-1.93-1.879-3.75-3.652-5.38-5.333a2.029 2.029 0 00-3.06.3 2.016 2.016 0 00.16 2.505c1.67 1.722 3.5 3.511 5.45 5.406 8.01 7.824 17.12 16.691 20.95 26.404.03.068.06.136.09.199.67 2.709 1.34 5.508 2 8.37-6.6-10.382-14.39-16.708-21.03-22.098l-1.1-.891a1.99 1.99 0 00-1.45-.395c-.52.062-1 .322-1.33.726a2.015 2.015 0 00.23 2.79l1.1.891c8.96 7.28 20.12 16.338 27.11 35.307.04.113.09-.014.15.085 8.17 39.047 15.37 88.897 16.49 135.593h4c-1.16-49.192-8.8-100.086-17.32-139.937.6-9.846 4.06-24.949 5.93-33.175z"/><path fill="#000" d="M2003.52 318.528c-.08-5.754-.11-11.59-.09-17.508.05-9.019.23-17.844.55-26.47-17.6-1.499-79.06-8.382-66.58-30.656 12-21.373 53.08 14.065 66.72 26.753.61-14.222 1.57-27.91 2.91-41.064-17.32-3.746-76.69-18.274-63.52-39.112 10.98-17.351 50.74 21.778 63.89 35.519 1.38-12.804 3.11-25.08 5.2-36.829-15.1-4.495-67.38-21.769-51.86-40.599 12.73-15.436 42.56 23.16 52.51 37.012 2.51-13.476 5.48-26.228 8.93-38.259-13.05-7.241-54.87-32.387-29.44-44.516 17.32-8.26 27.44 22.754 31.3 38.226a301.726 301.726 0 0111.22-30.696c.26-.574.68-1.066 1.19-1.417-3.44-15.28-9.25-52.128 15.75-48.987 29.24 3.676 2.42 37.192-9.27 50.264.18.367.29.771.31 1.187.02.415-.07.826-.24 1.206a292.608 292.608 0 00-10.85 29.676c10.61-13.171 31.36-35.126 42.65-21.724 13.29 15.772-30.77 26.625-45 29.655-3.28 11.573-6.11 23.829-8.5 36.774 11.07-10.1 49.25-42.927 60.8-26.378 11.95 17.11-47.95 26.903-61.26 28.848-2.17 12.153-3.95 24.894-5.37 38.224 13.02-9.199 56.86-38.468 66.57-22.432 13.21 21.78-51.14 24.644-66.85 25.019a694.482 694.482 0 00-2.86 41.027c15.31-11.157 62.93-43.68 69.9-22.138 7.09 22.037-52.73 25.158-70.03 25.599a832.01 832.01 0 00-.55 26.332c-.04 6.297 0 12.498.11 18.606 14.36-9.938 71.86-47.862 78.26-23.253 6.57 25.281-62.25 25.817-78.23 25.604a996.697 996.697 0 002.04 47.876c13.23-8.779 68.51-43.822 78.38-22.894 13.33 28.318-62.1 26.095-78.21 25.254 1.43 20.816 3.33 38.588 5.11 54.013h-8.27c-1.77-15.425-3.63-33.004-5.06-53.605-16.57.997-79.69 2.878-67.75-24.971 8.86-20.665 53.59 10.814 67.51 21.31a1009.685 1009.685 0 01-1.97-47.321c-17.84-1.12-88.6-7.107-67.58-30.215 13.2-14.548 54.43 16.549 67.53 27.06z"/><path fill="#000" fill-rule="evenodd" d="M2243.08 364.116c-63.77-34.46-119.42-73.664-119.42-73.664s73.8-16.286 133.42 39.736c16.62 15.634 28.47 33.212 36.89 50.622-5.41-17.513-12.86-36.771-23.06-57.29-22.05-44.267-96.29-143.938-96.29-143.938s80.6 1.868 145.15 115.025c-8.64-33.841-25.4-85.003-32.15-110.391-12.96-48.751-19.54-92.532-19.54-92.532s85.9 60.306 91.19 188.781c0 .296.02.595.02.889a275.257 275.257 0 0146.45-77.123c42.24-49.635 118.97-45.746 118.97-45.746s-99.4 59.516-128.73 130.286c-5 12.175-9.31 24.621-12.91 37.279 1.3-2.55 2.66-5.114 4.1-7.706 52.98-95.229 148.24-87.257 148.24-87.257s-79.44 47.6-112.9 116.212c-9.23 18.94-20.1 46.72-30.38 78.958h-142.72c-6.47-7.183-13.7-14.119-21.61-20.098-57.01-43.149-89.13-51.714-89.13-51.714s68.57-19.2 119.6 30.612c12.99 12.685 22.31 26.888 28.95 40.103-7.78-23.702-21.19-48.643-44.14-61.044z" clip-rule="evenodd"/><path fill="#000" fill-rule="evenodd" d="M2228.7 426.253h-20.72c-16.83-32.464-46.55-49.374-46.55-49.374s43.72 4.425 67.27 49.374z" clip-rule="evenodd"/><path fill="#000" fill-rule="evenodd" d="M2254.1 426.253h-24.2c-20.84-75.664-70.1-115.014-70.1-115.014s68.7 31.359 94.3 115.014z" clip-rule="evenodd"/><path fill="#000" d="M2648.82 220.76v15.233c-20.78 18.357-55.04 42.497-68.81 20.82-15.01-23.604 39.52-32.839 68.81-36.053zm0 58.54v37.073c-9.76 2.939-19.01.861-23.94-10.568-5.26-12.214 7.17-20.707 23.94-26.505z"/><path fill="#29AA61" fill-rule="evenodd" d="M2356.18 356.289c42.52 21.865 62.34 41.834 62.34 41.834s-35.23-47.995-113.41-75.993c-28.12-10.068-29.29-47.87 2.89-50.028 34.35-2.306 88.53 58.397 121.19 99.648-29.94-50.296-100.57-115.898-83.88-135.92 32.66-39.205 103.59 124.748 103.59 124.748s-59.84-142.162-26.05-139.047c51.69 4.774 44.57 172.137 44.57 172.137s21.52-103.881 50.26-90.063c25.71 12.34 8.9 47.113-22.89 89.523-8.17 10.889-13.43 23.255-16.7 33.125h-223.46a13.791 13.791 0 01-1.43-3.435c-7.19-26.83 45.22-33.88 88.29-25.779 51.6 9.702 78.21 23.915 78.21 23.915s-13.2-12.71-45.75-25.825c-40.02-16.118-133.85-13.882-129.17-47.286 4.39-31.31 65.76-15.017 111.4 8.446z" clip-rule="evenodd"/><path fill="#33F28B" fill-rule="evenodd" d="M2503.45 396.806s-82.99-92.303-57.87-110.856c32.77-24.199 76.08 88.747 77.55 92.615l.03.105-.03-.105c-1.7-4.495-58.28-154.776-18.12-168.2 21.9-7.324 34.28 34.339 42.5 80.684 4.56 25.743 8.04 53.708 9.9 70.168.9 9.031 1.56 14.416 1.56 14.416s-.55-5.531-1.56-14.416c-4.97-49.582-17.55-209.152 28.28-191.948 37.57 14.108-6.93 174.509-8.15 178.794-.02.063-.02.094-.02.094l.02-.094c1.03-3.637 32-112.935 71.54-128.852v93.927c-39.69 39.955-57.74 61.044-57.74 61.044s26.4-22.371 57.74-43.193v61.292c-19.4 8.127-33.82 13.041-33.82 13.041s14.88-5.057 33.8-9.24v30.175h-158.58a1831.617 1831.617 0 00-40.49-26.43c-26.35-16.664-46.62-40.395-38.67-57.052 14.74-30.95 92.13 54.031 92.13 54.031z" clip-rule="evenodd"/><path fill="#187F8B" d="M2583.02 238.332c17.97-7.842 22.46 27.252 23.54 41.453.37.206.66.491.9.834 5.52 8 10.87 16.687 16.08 26.057-.91-14.396-1.14-45.545 13.97-41.452 22.03 5.97-3.69 37.484-11.36 46.226 5.5 10.23 10.81 21.218 15.94 32.961 1.36-4.853 3.81-13.078 6.99-21.262v19.855a186.322 186.322 0 01-5.78 4.185c1.95 4.535 3.89 9.181 5.78 13.937v15.527a600.053 600.053 0 00-11.16-27.831c-9.53.83-57.6 4.14-52.8-13.869 4.67-17.507 42.15 5.649 52.04 12.124-4.94-11.321-10.06-21.931-15.32-31.83-10.83.106-47.09-.79-40.97-17.84 5.3-14.672 26.92 2.202 37.74 11.894-5.12-9.179-10.37-17.686-15.78-25.52a2.693 2.693 0 01-.48-1.716c-11.64-9.258-40.33-34.558-19.33-43.733zm66.06 175.913v12.006h-33.99c-5.24-1.954-8.69-5.58-8.69-11.451-.04-15.689 24.57-8.194 42.68-.555zm0-32.783v3.646c-14.88 3.296-57.41 10.987-53.17-9.914 3.2-15.67 39.63-.112 53.17 6.268z"/><path fill="#33F28B" fill-rule="evenodd" d="M1711.29 313.944c.1 1.095.26 2.185.47 3.261 13.77 68.171 58.15 102.849 58.15 102.849s-42.06-59.204-44.56-132.993a149.49 149.49 0 0120.59-25.634 124.6 124.6 0 005.31 16.081c23.35 57.746 56.68 74.282 56.68 74.282s-39.48-48.051-48.17-102.38a132.702 132.702 0 0134.73-18.896c-.07 3.2.15 6.398.65 9.559 8.24 50.298 45.24 99.309 45.24 99.309s-27.27-61.56-26.34-114.482c17.8-3.8 37.7-4.689 59.83-2.07a134.74 134.74 0 0121.83 4.434c-28.18 61.34-23.36 131.769-23.36 131.769s19.2-78.675 42.76-124.522c17.78 8.211 33.73 20.121 47.22 34.833-4.76 43.699-23.41 89.441-23.41 89.441s18.85-12.257 44.69-60.563a184.725 184.725 0 0119.48 47.42c-31.67 25.046-77.48 54.817-77.48 54.817s36.63-5.766 82.26-29.62c1.8 14.925 1.93 30.006.36 44.96-3.86 3.468-7.99 6.96-12.33 10.443h-300.2c-1.58-11.626-2.2-22.844-1.67-33.351 1.42-27.645 7.06-54.753 17.27-78.947z" clip-rule="evenodd"/><path fill="#000" fill-rule="evenodd" d="M2416.59 370.637c12.4-2.596 33.16 47.896 33.16 47.896s-20.56-55.499-9.38-56.702c16.85-1.813 28.82 53.289 28.82 53.289s-6.68-59.432 4.58-59.863c16.22-.612 11.68 37.926 11.68 37.926s8.16-31.319 19.91-31.15c10.26.151-7 50.792-7 50.792s35.27-55.735 47.59-52.987c12.32 2.75-35.48 55.519-35.48 55.519s47.73-42.905 49.33-33.462c1.61 9.444-47.16 44.36-47.16 44.36h-76.66s-36.23-52.087-19.39-55.618z" clip-rule="evenodd"/><path fill="#29AA61" d="M1769.12 188.439s.57-2.461 1.22-6.241c.34.354.6.78.75 1.249 2.94 8.879 5.76 17.797 8.45 26.752-.75 4.301-1.09 7.124-1.09 7.124s.99-.733 2.61-2.024a731.364 731.364 0 018.68 32.226c-1.34 3.882-2.08 6.363-2.08 6.363s1.23-.451 3.29-1.287a586.765 586.765 0 017.69 38.053c-1.47 2.059-2.31 3.301-2.31 3.301s1.01-.178 2.76-.534c2.3 14.092 4.1 28.261 5.39 42.48-.69.949-1.36 1.907-2.02 2.875 0 0 .83.022 2.28.02 1.28 14.8 2.1 30.315 2.42 46.735a97.47 97.47 0 00-2.24 2.132s.83.087 2.28.199a861.85 861.85 0 01-.23 38.387h-6.67c.37-13.394.44-26.177.23-38.439 2.03-.226 3.22-.397 3.22-.397s-1.22-1.028-3.28-2.641c-.33-16.014-1.14-31.16-2.4-45.614 1.62-.147 2.54-.25 2.54-.25s-1-.764-2.75-2.015a594.822 594.822 0 00-5.38-42.484c1.95-.077 3.08-.149 3.08-.149s-1.38-1.473-3.73-3.784a592.03 592.03 0 00-7.21-35.636c2.17-.057 3.45-.13 3.45-.13s-1.77-2.065-4.72-5.208a712.964 712.964 0 00-9.02-33.399c2.02.647 3.22.998 3.22.998s-2.59-5.36-6.66-12.396c-1.99-6.41-4.03-12.801-6.14-19.172a3.335 3.335 0 01-.16-1.293c.03-.437.15-.864.35-1.254 2.43 3.328 4.18 5.453 4.18 5.453z"/><path fill="#29AA61" d="M1759.75 143.18c16.27-3.889 12.88 25.72 10.59 39.019a3.356 3.356 0 00-1.32-.852 3.338 3.338 0 00-3.03.442c-.43.31-.78.719-1.02 1.193-8-11.077-23.17-35.515-5.22-39.802z"/><path fill="#29AA61" d="M1766.89 181.331a3.346 3.346 0 013.45.868c-.35 2.091-.76 4.173-1.22 6.244 0 0-1.75-2.125-4.15-5.459a3.31 3.31 0 011.92-1.653z"/><path fill="#29AA61" d="M1766.89 181.331a3.346 3.346 0 013.45.868c-.35 2.091-.76 4.173-1.22 6.244 0 0-1.75-2.125-4.15-5.459a3.31 3.31 0 011.92-1.653zm38.24-12.186c16.65 11.857-14.6 38.606-24.07 46.156l-1.5-5.098c2.7-15.819 10.66-51.676 25.57-41.058z"/><path fill="#29AA61" d="M1781.06 215.301c-1.61 1.291-2.6 2.026-2.6 2.026s.36-2.825 1.09-7.126a514.59 514.59 0 011.51 5.1z"/><path fill="#29AA61" d="M1781.06 215.301c-1.61 1.291-2.6 2.026-2.6 2.026s.36-2.826 1.09-7.126a514.59 514.59 0 011.51 5.1zm49.93-9.038c19.34 20.313-27.01 41.053-40.03 46.34-.4-1.694-.8-3.386-1.21-5.074 5.84-16.879 23.16-60.256 41.24-41.266z"/><path fill="#29AA61" d="M1790.96 252.603c-2.06.837-3.29 1.289-3.29 1.289s.74-2.483 2.08-6.363c.41 1.688.82 3.38 1.21 5.074z"/><path fill="#29AA61" d="M1790.96 252.603c-2.06.837-3.29 1.289-3.29 1.289s.74-2.483 2.08-6.363c.41 1.688.82 3.38 1.21 5.074zm60.66 3.723c11.47 22.581-39.87 34.523-52.53 37.089-.15-.922-.29-1.848-.45-2.766 9.05-12.598 41.98-55.925 52.98-34.323z"/><path fill="#29AA61" d="M1799.1 293.422c-1.75.359-2.76.535-2.76.535s.84-1.249 2.31-3.301c.16.919.3 1.846.45 2.766z"/><path fill="#29AA61" d="M1799.1 293.422c-1.75.359-2.76.535-2.76.535s.84-1.249 2.31-3.301c.16.919.3 1.846.45 2.766zm58.88 18.09c10.7 25.842-41.55 27.277-53.23 27.277-.09-.97-.18-1.931-.25-2.895 8.43-11.723 41.14-54.097 53.48-24.382z"/><path fill="#29AA61" d="M1804.75 338.798c-1.45 0-2.28-.02-2.28-.02s.73-1.084 2.02-2.873c.09.964.18 1.925.26 2.893z"/><path fill="#29AA61" d="M1804.75 338.798c-1.45 0-2.28-.02-2.28-.02s.73-1.084 2.02-2.873c.09.964.18 1.925.26 2.893zm52.29 29.681c6.12 22.364-39.05 20.209-49.82 19.385 0-.781-.03-1.553-.04-2.33 9.18-8.56 43.87-39.019 49.86-17.055zm-49.83 19.385c-.76-.058-1.52-.123-2.28-.197 0 0 .81-.806 2.24-2.133.01.777.03 1.549.04 2.33z"/><path fill="#29AA61" d="M1807.21 387.864c-.76-.058-1.52-.123-2.28-.197 0 0 .81-.806 2.24-2.133.01.777.03 1.549.04 2.33zm-36.3-183.164c1.16 3.797 2.31 7.598 3.44 11.405-12.76-4.105-58.5-20.452-43.56-39.767 11.8-15.283 30.29 11.405 40.12 28.362z"/><path fill="#29AA61" d="M1774.36 216.105c-1.13-3.809-2.27-7.61-3.45-11.403 4.08 7.033 6.66 12.395 6.66 12.395s-1.2-.345-3.21-.992z"/><path fill="#29AA61" d="M1774.36 216.105c-1.13-3.809-2.27-7.61-3.45-11.403 4.08 7.033 6.66 12.395 6.66 12.395s-1.2-.345-3.21-.992zm9 33.399c.44 1.776.86 3.554 1.28 5.34-14.58.382-70.02.042-58.65-27.868 10.03-24.613 44.67 8.99 57.37 22.528z"/><path fill="#29AA61" d="M1784.64 254.844c-.42-1.788-.84-3.568-1.27-5.34 2.95 3.145 4.72 5.209 4.72 5.209s-1.28.072-3.45.131z"/><path fill="#29AA61" d="M1784.64 254.844c-.42-1.788-.84-3.568-1.27-5.34 2.95 3.145 4.72 5.209 4.72 5.209s-1.28.072-3.45.131zm7.21 35.636c.22 1.304.44 2.616.65 3.933-13.85.534-69.33 1.085-56.83-25.197 10.17-21.36 44.72 9.981 56.18 21.264z"/><path fill="#29AA61" d="M1795.58 294.262s-1.13.072-3.08.149c-.21-1.317-.43-2.627-.65-3.933 1.27 1.237 2.51 2.498 3.73 3.784z"/><path fill="#29AA61" d="M1795.58 294.262s-1.13.072-3.08.149c-.21-1.317-.43-2.627-.65-3.933 1.27 1.237 2.51 2.498 3.73 3.784zm2.3 42.633c.07.749.14 1.499.2 2.265-12.29 1.113-65.01 4.642-59.74-17.379 5.31-22.155 48.2 6.962 59.54 15.114z"/><path fill="#29AA61" d="M1798.08 339.16c-.06-.748-.13-1.497-.2-2.265 1.74 1.249 2.75 2.015 2.75 2.015s-.93.103-2.55.25z"/><path fill="#29AA61" d="M1798.08 339.16c-.06-.748-.13-1.497-.2-2.265 1.74 1.249 2.75 2.015 2.75 2.015s-.94.103-2.55.25zm2.4 45.614l.06 3.04c-12.46 1.405-56.61 5.039-49.53-15.039 6.84-19.365 39.04 3.832 49.47 11.999z"/><path fill="#29AA61" d="M1800.54 387.814c-.02-1.018-.04-2.03-.07-3.038 2.06 1.613 3.28 2.641 3.28 2.641s-1.18.169-3.21.397z"/><path fill="#29AA61" d="M1800.54 387.814c-.02-1.018-.04-2.03-.07-3.038 2.06 1.613 3.28 2.641 3.28 2.641s-1.18.169-3.21.397z"/><path fill="#000" fill-rule="evenodd" d="M1532.83 261.666c21.48-7.355 59.46 112.467 68.73 142.935 1.33 4.464 2.09 6.966 2.09 6.966s-.75-2.544-2.09-6.966c-11.24-37.779-63.41-216.821-43.36-220.813 33.83-6.741 84.2 216.379 84.2 216.379s-25.97-162.689-3.21-165.024c32.79-3.369 31.63 103.034 31.63 103.034s10.04-86.932 33.91-87.683c20.88-.658-3.63 140.336-3.63 140.336s59.99-156.868 85.57-150.575c25.58 6.293-60.42 156.286-60.42 156.286s87.9-122.895 93.11-97.106c5.21 25.786-86.46 126.818-86.46 126.818h-156.23s-77.33-153.13-43.84-164.587z" clip-rule="evenodd"/><path fill="#00863A" fill-rule="evenodd" d="M1572.85 359.816c.95 2.38 1.95 4.741 3 7.081 0 0-1.06-2.717-3-7.081-9.61-23.74-36.51-99.689 7.2-111.359 46.64-12.447 55.83 89.569 55.83 89.569s7.3-82.207 44.99-79.773c55.29 3.571 13.4 101.985 13.4 101.985s29.26-35.241 59.49-10.77c25.14 20.359-7.97 55.016-26.66 76.776h-224.11v-80.576c8.22 6.56 15.45 13.589 20.13 18.384a171.48 171.48 0 005.5 5.872s-2.05-2.325-5.5-5.872c-5.44-6.035-13.82-16-20.13-26.47v-37.806c2.54-1.333 5.71-2.373 9.62-3.045 27.29-4.697 51.92 44.365 60.24 63.085z" clip-rule="evenodd"/><path fill="#33F28B" fill-rule="evenodd" d="M1550.19 402.555s-20.78-49.8 7.8-53.357c29-3.607 39.48 46.529 39.48 46.529s7.09-48.389 29.73-41.348c19.94 6.194 6.06 56.896 6.06 56.896s34.6-37.412 55.73-32.73c16.74 3.71-14.8 41.014-20.21 47.706h-145.31c-7.45-11.6-11.4-21.571-7.03-27.169 10.64-13.656 33.75 3.473 33.75 3.473zm372.23-1.896c8.73 7.297-5.54 16.231-22.24 25.603h-41.32c9.1-5.141 56.04-31.885 63.56-25.603z" clip-rule="evenodd"/><path fill="#187F8B" d="M2250.29 404.849a233.29 233.29 0 01.08-28.966c-6.02-1.998-47.84-16.651-35.97-34.798 11.53-17.642 32.16 25.175 36.04 33.617.28-3.861.64-7.678 1.1-11.451.68-5.461 1.57-10.832 2.67-16.115-5.26-4.449-32.5-28.57-14.91-35.708 11.75-4.771 14.82 22.649 15.55 32.769 1.2-5.346 2.61-10.59 4.23-15.732-.05-5.432.11-42.021 16.28-34.267 14.1 6.763-4.65 24.971-12.82 32.057a194.48 194.48 0 00-5.19 18.665c7.76-7.538 28.05-25.557 34.21-14.598 7.39 13.153-25.45 16.755-34.83 17.506a194.627 194.627 0 00-2.59 15.731c-.5 3.975-.89 8.002-1.14 12.076 5.6-6.242 33.72-36.393 40.42-22.443 8.25 17.23-33.69 22.688-40.5 23.452-.62 10.343-.57 20.715.17 31.049 2.13-2.726 34.06-43.099 41.1-24.181 7.28 19.649-38.45 24.076-41.1 24.317.38 5.626.97 11.306 1.76 17.037.06.459.13.913.19 1.371h-2.65c-.04-.342-.09-.68-.13-1.024-.81-5.96-1.42-11.87-1.8-17.729-10.91-2.664-57.93-15.344-47.41-33.739 9.3-16.244 38.64 19.89 47.24 31.104z"/><path fill="#33F28B" fill-rule="evenodd" d="M2076.84 368.802c-26.78-160.717-103.45-231.524-103.45-231.524s108.08 60.495 139.01 213.787c-9.94-191.682-123.36-299.21-123.36-299.21s156.17 92.306 153.87 335.665c17.95-205.245-32.22-310.03-32.22-310.03s79.08 92.966 63.17 303.417c37.21-113.593 18.17-252.931 18.17-252.931s49.47 118.363 12.29 253.569c37.73-88.049 47.15-186.397 47.15-186.397s14.71 97.815-23.87 195.596c39.06-68.129 52.96-135.239 52.96-135.239s6.53 90.844-40.2 170.752h-182.59c-1.29-19.227-4.93-41.882-12.89-66.9-27.22-85.599-101.98-148.432-101.98-148.432s97.12 43.856 133.94 157.877z" clip-rule="evenodd"/><path fill="#29AA61" d="M2198.29 389.293a88.813 88.813 0 0115.15 24.842c-5.1 4.37-10.63 7.992-16.37 12.116h-60.39c16.94-6.787 39.74-17.292 56.51-31.6a40.309 40.309 0 005.1-5.358zm-163.33 16.499s9.13-33.772 26.98-60.866a154.107 154.107 0 0149.95-1.119c-4.51 28.171-20.76 67.101-27.49 82.446h-64.83c-5.9-12.691-16.31-34.857-23.15-53.314 11.31-8.066 23.67-14.854 36.61-19.815-5.33 38.108 1.93 52.668 1.93 52.668zm111.47-52.554c16.75 7.272 30.27 15.9 40.88 25.158-16.46 20.337-43.31 38.116-59.72 47.855h-40.31c10.93-13.279 34.15-43.784 41.69-78.921 5.96 1.624 11.79 3.448 17.46 5.908zm-165.57 32.331c11.77 18.421 24.39 31.83 32.92 40.682h-49.99a197.97 197.97 0 01-5-14.807 146.587 146.587 0 0122.07-25.875z"/><path fill="#187F8B" fill-rule="evenodd" d="M1789.82 426.253h-60.86c-1.97-2.983-2.87-5.777-2.45-8.321 3.64-22.065 36.57-10.32 63.31 8.321zm134.79-68.544c20.7 6.66 11.49 38.808-2.4 68.546h-26.96c5.47-28.615 16.15-72.791 29.36-68.546zm-99.7-26.51c21.1 9.704 35.05 55.539 43.35 95.052h-25.73c-7.66-17.23-19.91-38.534-39.31-60.293-16.22-18.19-2.24-45.761 21.69-34.759zm1.54 79.181c3.53 5.184 6.9 10.477 10.09 15.871h-32.69c-28.24-23.075-66.8-48.13-53.98-65.381 15.42-20.751 53.05 14.879 76.58 49.51zm39.44-90.647c28.87-11.444 28.83 66.11 26.92 106.518h-22.27c-6.16-45.507-21.41-99.876-4.65-106.518zm94.54 101.439a16.867 16.867 0 013.4 5.079h-31.17c10.21-8.806 20.34-12.832 27.77-5.079z" clip-rule="evenodd"/></g></g><defs><clipPath id="clip0_1_13"><path fill="#fff" d="M0 0h2650v428H0z"/></clipPath><clipPath id="clip1_1_13"><path fill="#fff" d="M0 0h2650v428H0z"/></clipPath></defs></svg>